<?xml version="1.0" encoding="UTF-8"?>
<svg id="_レイヤー_2" data-name="レイヤー 2" xmlns="http://www.w3.org/2000/svg" xmlns:xlink="http://www.w3.org/1999/xlink" viewBox="0 0 813.37 679.88">
  <defs>
    <style>
      .cls-1 {
        fill: url(#_名称未設定グラデーション_13-3);
      }

      .cls-1, .cls-2, .cls-3, .cls-4, .cls-5, .cls-6, .cls-7, .cls-8, .cls-9, .cls-10, .cls-11, .cls-12, .cls-13, .cls-14, .cls-15, .cls-16, .cls-17, .cls-18, .cls-19, .cls-20 {
        stroke-width: 0px;
      }

      .cls-2 {
        fill: url(#_名称未設定グラデーション_13-2);
      }

      .cls-3 {
        fill: url(#_名称未設定グラデーション_13);
      }

      .cls-4 {
        fill: url(#_名称未設定グラデーション_11);
      }

      .cls-5 {
        fill: url(#_名称未設定グラデーション_7-2);
      }

      .cls-6 {
        fill: url(#_名称未設定グラデーション_7-3);
      }

      .cls-21 {
        fill: #231815;
        stroke-linecap: round;
        stroke-width: .25px;
      }

      .cls-21, .cls-22 {
        stroke: #fff;
      }

      .cls-21, .cls-22, .cls-23, .cls-24, .cls-25 {
        stroke-miterlimit: 10;
      }

      .cls-22 {
        stroke-width: .5px;
      }

      .cls-22, .cls-10 {
        fill: #313333;
      }

      .cls-23 {
        stroke: #feefda;
      }

      .cls-23, .cls-18 {
        fill: #fff;
      }

      .cls-24 {
        fill: #bad1ed;
      }

      .cls-24, .cls-25 {
        stroke: #bdaad1;
      }

      .cls-7 {
        fill: url(#_名称未設定グラデーション_7);
      }

      .cls-8 {
        fill: url(#_名称未設定グラデーション_9);
      }

      .cls-25 {
        fill: none;
      }

      .cls-9 {
        fill: #7bb9e0;
      }

      .cls-11 {
        fill: #7ab8e0;
      }

      .cls-12 {
        fill: #54a0d1;
      }

      .cls-13 {
        fill: #2275b4;
      }

      .cls-14 {
        fill: #977328;
      }

      .cls-15 {
        fill: #fdf0ce;
      }

      .cls-16 {
        fill: #f2c09d;
      }

      .cls-17 {
        fill: #f3cb45;
      }

      .cls-19 {
        fill: #e6a2a8;
      }

      .cls-20 {
        fill: #f3c8a2;
      }
    </style>
    <linearGradient id="_名称未設定グラデーション_11" data-name="名称未設定グラデーション 11" x1="807.26" y1="902.77" x2="1070.53" y2="902.77" gradientTransform="translate(436.16 -809.92) rotate(33.98)" gradientUnits="userSpaceOnUse">
      <stop offset=".32" stop-color="#f5d679"/>
      <stop offset=".8" stop-color="#e8b6bc"/>
    </linearGradient>
    <linearGradient id="_名称未設定グラデーション_13" data-name="名称未設定グラデーション 13" x1="659.39" y1="926.87" x2="857.38" y2="926.87" gradientTransform="translate(436.16 -809.92) rotate(33.98)" gradientUnits="userSpaceOnUse">
      <stop offset="0" stop-color="#84b9df"/>
      <stop offset="1" stop-color="#e8b6bc"/>
    </linearGradient>
    <linearGradient id="_名称未設定グラデーション_7" data-name="名称未設定グラデーション 7" x1="633.51" y1="759.06" x2="896.36" y2="759.06" gradientTransform="translate(436.16 -809.92) rotate(33.98)" gradientUnits="userSpaceOnUse">
      <stop offset=".26" stop-color="#84b9df"/>
      <stop offset=".8" stop-color="#e8b6bc"/>
    </linearGradient>
    <linearGradient id="_名称未設定グラデーション_13-2" data-name="名称未設定グラデーション 13" x1="766.83" y1="1081.99" x2="986.39" y2="1081.99" xlink:href="#_名称未設定グラデーション_13"/>
    <linearGradient id="_名称未設定グラデーション_7-2" data-name="名称未設定グラデーション 7" x1="562.75" y1="761.95" x2="610.93" y2="761.95" xlink:href="#_名称未設定グラデーション_7"/>
    <linearGradient id="_名称未設定グラデーション_9" data-name="名称未設定グラデーション 9" x1="280.15" y1="872.16" x2="523.65" y2="872.16" gradientTransform="translate(436.16 -809.92) rotate(33.98)" gradientUnits="userSpaceOnUse">
      <stop offset="0" stop-color="#f5d679"/>
      <stop offset=".8" stop-color="#e8b6bc"/>
    </linearGradient>
    <linearGradient id="_名称未設定グラデーション_13-3" data-name="名称未設定グラデーション 13" x1="236.76" y1="1164.08" x2="603.59" y2="1164.08" xlink:href="#_名称未設定グラデーション_13"/>
    <linearGradient id="_名称未設定グラデーション_7-3" data-name="名称未設定グラデーション 7" x1="183.82" y1="857.04" x2="556.09" y2="857.04" xlink:href="#_名称未設定グラデーション_7"/>
  </defs>
  <g id="_レイヤー_1-2" data-name="レイヤー 1">
    <path class="cls-4" d="m766.1,471.3c-14.81-25.16-15.91-26.8-17.43-28.82-2.83-3.76-10.64-13.92-23.45-21.62-11.71-7.04-15.09-4.51-39.2-13.23-14.91-5.39-22.37-8.09-28.58-12.28-5.89-3.97-19.52-14.32-32.11-20.87-1.98-1.03-6.25-3.17-10.52-1.66-2.35.83-4.83,2.82-5.65,5.5-.51,1.67-.95,5.52,4.94,12.25,16.69,19.09,58.06,41.07,58.06,41.07,24.09,12.8,11.58,10.07,59.94,41.17,0,0,18.72,12.04,35.23,38.1,1.74,2.75,4.71,7.88,2.8,10.81-1.59,2.46-5.93,2.35-9.29,2.27-9.69-.23-13.25-4.55-16.94-2.5-3.12,1.74-4.11,6.79-3.53,10.42.82,5.2,5.53,8.44,14.92,14.71,22.3,14.9,23.54,15.51,26.51,15.93,2.17.3,15.37,2.16,24.4-6.84,5.75-5.74,6.81-12.9,7.04-15.05,1.17-10.91-5.19-19.51-11.11-27.27-10.69-14.03-17.71-13.76-28.41-29.23-.36-.52-.18-.28-7.61-12.89Z"/>
    <path class="cls-3" d="m546.76,363.94c-2.33.62-3.6,4.21-3.73,6.56-.35,6.49,7.52,11.89,10.68,14.18,1.05.76,10.41,10.77,29.13,30.8,28.62,30.61,27.78,43.4,27.29,47-.22,1.63-.99,7.29-4.38,8.56-3.73,1.4-8.89-3.16-14-8.74-14.73-16.09-16.65-27.15-29.14-45.81-1.45-2.17-7.51-9.69-19.62-24.73-12.04-14.96-14.93-18.14-20.03-21.53-3.77-2.5-10.71-4.86-24.59-9.59-2.86-.97-20.35-6.91-32.1-15.01-2.13-1.47-5.9-4.26-6.22-8.38-.03-.41-.27-3.39,1.55-4.89,2.39-1.97,6.55.09,12.03,1.83,9.52,3.02,9.97.93,16.67,3.21,12.82,4.36,12.79,12.53,22.24,13.59,6.54.74,14.34-2.29,16.09-7.3,1.64-4.71-2.19-10.81-2.67-11.57-2.61-4.16-5.62-5.23-5.58-8.29.03-2.04,1.41-4.31,3.16-5.2,5.1-2.59,13.65,6.51,25.2,15.94,14.76,12.06,14.06,8.02,28.87,19.81,13.21,10.51,33.71,26.83,30.93,41.08-.18.93-1.01,5.17-3.96,6.4-3.45,1.43-7.76-2.21-16.24-9.55-11.6-10.04-25.23-17.49-37.34-26.91-.7-.54-2.48-1.93-4.25-1.47Z"/>
    <g>
      <g>
        <ellipse class="cls-24" cx="348.35" cy="508.6" rx="4.77" ry="5.94" transform="translate(-260.2 607.06) rotate(-64.78)"/>
        <ellipse class="cls-24" cx="291.32" cy="459.37" rx="2.54" ry="3.16" transform="translate(-248.38 527.22) rotate(-64.78)"/>
        <ellipse class="cls-24" cx="252.92" cy="470.69" rx="6.29" ry="6.53" transform="translate(-280.67 498.97) rotate(-64.78)"/>
        <ellipse class="cls-24" cx="326.89" cy="549.26" rx="5.12" ry="5.93" transform="translate(-309.3 610.99) rotate(-64.78)"/>
        <ellipse class="cls-24" cx="279.34" cy="532.89" rx="5.37" ry="4.95" transform="translate(-321.68 505.02) rotate(-59.68)"/>
        <path class="cls-24" d="m302.17,487.38c-.16-1.59.33-4,1.72-4.35,1.22-.31,2.56,1.13,3.12,2.03,1.06,1.7.67,3.52.56,3.96,8.38,15.96,16.75,31.91,25.13,47.87,3.55,6.35,3.99,11.76,1.77,13.5-1.86,1.46-5.26.05-6.28-.37-6.18-2.57-8.06-9.59-8.4-10.94-5.42-16.2-10.85-32.4-16.27-48.61-.42-.5-1.2-1.58-1.36-3.1Z"/>
        <path class="cls-24" d="m306.2,483.25c-.03.45-.26,3.98-1.72,4.35-.78.19-1.59-.58-3.12-2.03-.91-.87-1.58-1.68-2.03-2.28-2.99-9.05-5.98-18.1-8.96-27.15.02-.06.14-.43.44-.53.36-.12.89.17,1.09.78,4.71,8.09,9.41,16.18,14.12,24.26.13.64.25,1.54.19,2.6Z"/>
        <path class="cls-24" d="m303.54,487.9c-2.01-1.38-2.79-3.31-2.3-4.12.51-.85,2.74-1.08,5.02.34,25.99,5.19,38.07,10.71,43.79,14.02,2.19,1.26,7.78,4.48,7.17,6.4-.57,1.77-5.76,1.6-6.39,1.58-15.76-6.07-31.53-12.15-47.29-18.22Z"/>
        <path class="cls-24" d="m302.37,485.13c1.57,1.43,2.25,2.32,2.04,2.67-.14.23-.66.23-1.56,0-14.01-4.99-28.01-9.99-42.02-14.98-5.48-2.71-8.05-6.01-9.2-7.81-.94-1.47-.9-1.89-.75-2.09.77-1.08,6.37,1.59,11.14,4.12,13.45,6.03,26.9,12.06,40.35,18.08Z"/>
        <path class="cls-24" d="m303.94,482.93c1.68-1.65,3.93-2.07,4.84-1.49.95.6,1.11,2.7-.63,4.6-7.21,23.26-14.14,33.57-18.21,38.36-1.56,1.83-5.52,6.51-7.7,5.64-2-.8-1.57-5.58-1.51-6.16,7.73-13.65,15.47-27.3,23.2-40.95Z"/>
        <path class="cls-24" d="m309.64,486.83c-1.58,2.9-4.99,3.44-6.64,2.12-1.3-1.05-1.7-3.42-.6-5.52,11.87-26.18,23.75-52.35,35.62-78.53,2.26-.13,19.03-.75,21.72,14.56.31,1.79.47,3.97.28,6.63-16.79,20.25-33.58,40.5-50.38,60.75Z"/>
        <path class="cls-24" d="m274.69,381.54c-2.65,5.73-5.29,11.46-7.94,17.19,9.49,21.18,21.68,33.53,30.3,40.58,7.57,6.18,16.06,11.28,64.52,31.12,14.28,5.85,26.2,10.58,34.53,13.86,1.29-.3,3.63-1.04,5.77-2.95,3.75-3.35,4.07-7.81,4.11-8.88-43.77-30.31-87.53-60.61-131.3-90.92Z"/>
        <path class="cls-24" d="m529.83,360.1c3.89-13.61,10.81-19.47,12.73-28.36,2.88-13.32-6.6-28.13-17.7-28.69-7.46-.38-11.43,5.9-21.23,5.57-7.68-.26-10.2-4.28-14.47-6-24.21-9.77-80.44,62.74-107.51,86.18-2.61,2.26-9.52,8.17-11.23,14.76-1.07,4.11.34,6.75.91,7.88,4.84,9.67,4.52,21.45,6.51,32.78-3.76-6.04-7.51-12.08-11.27-18.12-18.38-12.54-40.75-25.32-67.23-36.01-8.24-3.33-16.27-6.21-24.04-8.7,12.89,38.27,32.77,53.68,43.26,60.01,8.68,5.24,19.87,9.65,36.29,16.18,15.48,6.16,28.8,10.63,38.63,13.71.04.02.07.04.11.06,10.81,5.91,26.55-5.28,75.64-36.88,31.26-20.12,48.59-30.83,54.93-46.82.95-2.39,1.41-4.3,1.91-6.37,1.14-4.71.82-6.9,1.45-11.3.49-3.48,1.19-5.93,2.32-9.88Z"/>
        <line class="cls-25" x1="388.64" y1="454.22" x2="405.99" y2="472.46"/>
      </g>
      <path class="cls-19" d="m377.92,345.24c-5.14-4.5-11.41-8.84-12.1-9.31-4.27-2.91-8.04-5.12-10.89-6.68.28-.98.61-2.43.67-4.21.35-9.64-7.53-16.29-9.9-18.3-2.38-2.01-6.59-5.57-9.95-4.26-.99.39-2.31,1.36-2.67,2.78-.35,1.4.35,2.76,1.47,4.34,3.31,4.65,5.82,4.94,9.09,9.03,2.57,3.22,3.51,6.16,3.08,6.48-.4.3-2.04-1.76-3.94-1.39-.18.04-.76.15-.94.56-.07.17-.16.56.45,1.4.68.93,1.88,1.94,4.54,2.89.82.3,2.03.67,3.54.96,3.2,6.9,8.87,16.78,18.8,25.7,10.3,9.24,24.39,16.76,26.49,14.37,2.41-2.76-5.53-13.66-17.75-24.35Z"/>
      <path class="cls-10" d="m471.12,301.16c-6.03,7.82-14.46,11.44-18.82,8.07-4.37-3.36-3.02-12.43,3.01-20.26s14.46-11.44,18.82-8.07c4.37,3.36,3.02,12.43-3.01,20.26Z"/>
      <path class="cls-19" d="m469.19,354.37c-7.05,4.63-14.88,2.27-16.75-1.65-1.69-3.55.7-10.04,7.07-13.38.91-.18,1.82-.35,2.72-.53,4.46-.86,8.93-1.73,13.39-2.59,2.01,3.9,4.03,7.81,6.04,11.71l-12.47,6.44Z"/>
      <path class="cls-19" d="m204.92,418.02c-3.93.51-7.86,1.02-11.79,1.54-.31-.72-.61-1.44-.92-2.16,3.2-2.35,6.4-4.7,9.61-7.04,1.03,2.56,2.07,5.11,3.1,7.67Z"/>
      <path class="cls-10" d="m185.24,407.21c-3.72-7.44-4.41-8.85-6.07-9.26-3.55-.89-9.11,3.68-9.06,8.08.02,1.56.72,2.63,5.51,7.45,10.56,10.63,12.8,11.11,14.29,10.56.64-.24,1.59-.83,2.41-2.58,1.52-.27,3.05-.54,4.57-.81-1.15-2.42-2.3-4.83-3.45-7.25-1.17,1.06-2.34,2.11-3.5,3.17-.74-1.47-2.45-4.88-4.69-9.36Z"/>
      <path class="cls-19" d="m522.73,333.38c3.37.51,4.31,1.72,4.64,2.44,1.46,3.28-3.62,10.22-10.02,11.37-3.93.7-7.22-.97-8.55-1.75,2.78-2.57,5.57-5.13,8.35-7.7.77-.2,2.11-.66,3.43-1.76,1.13-.93,1.79-1.94,2.15-2.61Z"/>
      <path class="cls-19" d="m476.64,281.93c-11.39,7.58-22.27,22.52-21.39,39.32.2,3.84.61,11.6,6.36,18.73.68.84,2.65,3.19,5.78,5.42,8.64,6.19,18.27,5.97,22.2,5.88,17.07-.38,32.42-12.23,38.95-27.65,2.65-6.25,8.23-19.44.5-32.54-1.51-2.55-6.82-11.72-18.24-14.95-13.82-3.91-24.98,4.02-26.37,5.05-1.13-.62-2.26-1.24-3.38-1.86-1.05.54-2.62,1.39-4.42,2.58Z"/>
      <path class="cls-17" d="m490.73,259.41c-2.55-.39-6.05-1.51-10.01-4.81.43,1.48,1.15,3.32,2.4,5.21,3.16,4.78,7.67,6.83,9.71,7.61-2.95-.79-6.76-2.18-10.71-4.74-8.41-5.45-12.44-12.93-14.11-16.61-.97,3.08-2.57,9.8.19,16.86.04.09.08.21.14.34,2.11,4.99,5.11,6.92,9.32,11.28,1.06,1.1,2.58,2.75,4.3,4.91-3.73-2.31-7.47-4.62-11.2-6.93,3.11,4.09,7.14,8.56,12.31,12.83,1.58,1.3,3.14,2.49,4.67,3.56-2.46-1.02-4.91-2.05-7.37-3.07,3.17,4.71,8.16,11,15.65,16.88,3.81,2.99,6.84,4.74,7.61,5.19,4.42,2.57,12.14,6.23,23.24,7.45-.27,2.93-1.17,8.37-4.71,14.03-2.71,4.33-5.91,7.11-8.09,8.72.82.13,2.45.26,4.31-.43,2.69-1,4.04-3.07,4.43-3.74.72.12,1.29.3,1.69.45.94.35,2.15.81,2.75,1.95.07.13.12.25.15.32,8.9-4.02,14.69-11.53,14.63-19.32-.03-3.39-1.16-6.28-2.44-8.49,1.73-2.52,3.73-6.46,3.73-11.33,0-5.05-2.15-5-5.21-14.07-.36-1.06-1.15-3.49-3.06-4.08-.54-.17-1.03-.14-1.35-.1-1.37-1.34-2.86-2.69-4.49-4.01-7.52-6.12-15.29-9.69-21.73-11.84-1.57-1.12-3.97-2.55-7.13-3.32-3.97-.97-6.07-.16-9.61-.7Z"/>
      <path class="cls-19" d="m246.94,474.7c-3.01,2.58-6.01,5.16-9.02,7.75-.65-.43-1.3-.87-1.96-1.3l4.17-11.16c2.27,1.57,4.53,3.14,6.8,4.72Z"/>
      <path class="cls-10" d="m224.55,476.45c-7.19-4.18-8.54-4.98-10.16-4.42-3.46,1.2-5.6,8.08-3.15,11.73.87,1.29,2.05,1.81,8.69,3.21,14.66,3.1,16.79,2.28,17.74,1,.41-.55.88-1.57.6-3.48,1.13-1.06,2.25-2.12,3.38-3.18-2.29-1.39-4.57-2.78-6.86-4.17-.4,1.52-.8,3.05-1.19,4.57-1.42-.82-4.73-2.74-9.05-5.26Z"/>
      <path class="cls-18" d="m460.94,339.01c-1.9,3.62-2,7.8,0,10.57,2.93,4.06,10.38,5.06,15.99.36,2.14,3.68,4.72,9.29,5.27,16.33,1.07,13.74-8.04,25.14-26.19,47.46-27.23,33.5-41.14,50.26-55,50.46-6.05.09-11.04-1.67-14.29-3.16-14.91-22.32-29.83-44.64-44.74-66.96,13.83-16.49,54.81-61.05,106.08-57.08,4.14.32,8.44.96,12.88,2.02Z"/>
      <path class="cls-19" d="m446.06,386.29c-24.61,7.35-43.79,16.83-43.31,21.51.48,4.65,20.26,2.86,44.75-3.93-.47-5.92-1.07-11.72-1.44-17.57Z"/>
      <path class="cls-23" d="m478.32,363.77c-6.78-4.02-23.83,2.96-38.46,8.94-6.43,2.63-11.65,5.15-15.44,7.1,3.68,10.33,7.35,20.65,11.03,30.98,6.87-2.17,36.25-12.02,43.86-31.38.83-2.12,4.81-12.22-.98-15.65Z"/>
      <path class="cls-14" d="m392.63,464.63c-16.14-22.49-32.27-44.98-48.41-67.47-5.9-8.88-15.76-21.71-31.11-33.98-5.89-4.71-8.84-7.07-12.97-8.75-20.88-8.5-44.65,5.85-61.71,16.15-15.52,9.37-27.19,20.43-32.85,25.86-4.51,4.32-8.34,8.37-11.52,11.92,2.48,4.04,4.97,8.09,7.45,12.13,11.03-.55,31.75-3.09,53.71-15.73,17.01-9.79,28.06-21.78,34.36-29.82,1.52,2.56,4.15,6.22,8.41,9.43,7.87,5.93,16.27,6.54,19.59,6.6-9.84-7.05-19.67-14.1-29.51-21.15-8.03,7.31-16.97,16.83-25.34,28.96-19.26,27.91-25.9,55.73-28.46,73.05,3.3,3.12,6.59,6.24,9.89,9.36,6.96-3.75,18.67-11.28,28.6-24.86,13.71-18.75,15.96-37.98,16.43-46.16,3.28,5.55,8.59,13.32,16.74,21,15.6,14.7,32.36,20.35,47.83,25.37,9.35,3.04,22.54,6.49,38.86,8.1Z"/>
      <path class="cls-18" d="m470.09,308.82c-1.37,1.72-3.22,4.39-4.36,7.62-2.5,7.13-.55,14.05,5.21,17.23,6.22,3.44,16.01,2.06,24.9-3.51-8.58-7.12-17.16-14.23-25.75-21.35Z"/>
      <ellipse class="cls-10" cx="521.53" cy="339.39" rx="17.89" ry="9.98" transform="translate(-65.65 545.29) rotate(-52.38)"/>
      <path class="cls-10" d="m521.75,330.17c2.09,2.88,4.18,5.75,6.26,8.63,11.17-27.19,12-51.71,3.5-63.18-2.81-3.79-8.82-11.89-18.14-12.7-2.44-.21-4.5.13-5.9.47,1.23.62,2.46,1.24,3.69,1.85,2.83,1.23,5.66,2.46,8.48,3.7,4.27,2.19,7.02,4.83,8.84,7.19,9.46,12.3,6.5,33.73-6.73,54.03Z"/>
      <path class="cls-19" d="m388.92,381.36c-6.14-5.7-13.59-11.06-15.74-12.59-5.34-3.82-10.03-6.74-13.51-8.8-.24-1.63-.78-4.44-2.12-7.69-2.34-5.68-8.12-15.09-14.13-14.46-1.78.19-3.86,1.28-4.24,2.83-.49,1.97,2.07,3.49,6.2,8.72,3.36,4.26,4.93,7.39,4.44,7.83-.48.42-2.63-1.87-4.86-1.21-.21.06-.89.26-1.06.78-.18.55.31,1.19.69,1.62,2.73,3.11,6.14,4.49,6.14,4.49,1.07.43,2.65.97,4.68,1.27,4.42,7.57,11.72,18.2,23.2,28.32,11.33,9.98,27.49,20.14,29.97,17.48,2.85-3.07-5.95-15.87-19.65-28.59Z"/>
      <path class="cls-15" d="m443.32,477.85l-209.82-214.23c-30.2-14.27-60.4-28.54-90.61-42.8-45.77,27.84-91.54,55.69-137.31,83.53-.97.96-2.25,2.39-3.36,4.24-1.73,2.87-2.12,5.22-2.22,6.46,1.1,6.63,6.16,9.86,11.54,8.45,1.06-.28,3.34-1.05,6.17-3.51,41.23-30.85,82.46-61.7,123.7-92.56.24-.17.45-.35.65-.54,11.02,18.34,22.04,36.69,33.07,55.03-15.13,7.28-30.25,14.56-45.38,21.84-.72.54-1.7,1.36-2.6,2.47-1.4,1.72-1.87,3.23-2.05,4.03.11,4.45,3.14,7.04,6.8,6.61.72-.08,2.29-.38,4.37-1.74,14.73-8.11,29.46-16.22,44.2-24.33,15.45,25.71,30.89,51.42,46.34,77.12-.16.52-.29,1.07-.37,1.65-10.2,59.95-20.4,119.9-30.6,179.85,0,1.59.09,3.84.6,6.25.79,3.76,2.16,5.96,2.96,7.03,5.41,4.28,11.24,2.45,14.04-3.31.55-1.14,1.61-3.72,1.88-8.11,7.23-58.65,14.45-117.31,21.68-175.96l204.4,105.65c-.19.81-.29,1.71-.25,2.66.54,60.81,1.08,121.62,1.62,182.43.27,1.57.77,3.76,1.7,6.05,1.44,3.56,3.18,5.49,4.15,6.39,6.08,3.26,11.49.43,13.23-5.74,1.15-4.1.55-7.68.42-8.31-1.47-6.94-8.83-81.17-18.94-186.61Z"/>
      <path class="cls-9" d="m359.39,421.26c-23.55-28.28-47.11-56.56-70.66-84.84-9.55-6.57-19.11-13.14-28.66-19.7,16.7,24.1,33.4,48.21,50.1,72.31,16.41,10.75,32.82,21.49,49.23,32.24Z"/>
      <path class="cls-22" d="m361.4,415.75c-20.8-24.97-41.59-49.94-62.39-74.92-9.03-5.89-18.07-11.77-27.1-17.66,13.52,19.85,27.04,39.7,40.56,59.55,16.31,11.01,32.62,22.02,48.94,33.02Z"/>
      <path class="cls-22" d="m359.39,421.26c.67-1.83,1.34-3.67,2.02-5.5-16.31-11.01-32.62-22.02-48.94-33.02-12.48-18.28-24.95-36.57-37.43-54.85-1.21,1.76-2.42,3.52-3.62,5.28,12.92,18.62,25.83,37.24,38.75,55.87,16.41,10.75,32.82,21.49,49.23,32.24Z"/>
      <path class="cls-10" d="m264.3,342.65c36.17-32.28,72.33-64.57,108.5-96.85-37.85-22.98-75.7-45.96-113.54-68.94-16.91,22.36-33.81,44.72-50.72,67.09,7.59,13.44,15.18,26.87,22.77,40.31l-8.66,15.48c-6.99-10.28-12.78-16.84-14.39-15.88-2.22,1.32,4.33,16.41,14.62,33.69,10.3,17.29,20.44,30.23,22.66,28.91s-4.33-16.41-14.62-33.69c-.9-1.51-1.8-2.99-2.7-4.44l8.3-14.84c9.26,16.39,18.52,32.78,27.78,49.17Z"/>
      <path class="cls-21" d="m315,378.09c-9.82-13.69-19.64-27.37-29.46-41.06"/>
      <path class="cls-21" d="m322.35,383.59c-9.82-13.69-19.64-27.37-29.46-41.06"/>
      <path class="cls-21" d="m330.22,390.37c-9.82-13.69-19.64-27.37-29.46-41.06"/>
      <path class="cls-21" d="m338.94,392.88c-10.79-13.28-21.58-26.55-32.36-39.83"/>
    </g>
    <path class="cls-7" d="m624.34,166.76c-12.33-9.86,3.32,2.67-18.47-13.86-20.02-15.19-34.2-26.5-38.72-23.22-.4.29-1.3,1.11-1.61,2.34-.74,2.93,2.43,6.07,4.31,7.88,7.23,6.98,10.84,10.47,13.21,11.89,8.92,5.34,23.46,18.9,52.56,46.04,17.61,16.42,25.55,25.64,32.08,37.54,3.08,5.61,7.35,14.57,7.27,26.13-.04,5.6-.1,14.65-6.36,20.26-5.97,5.35-15.17,5.39-17.57,5.4-5.65.03-8.76-1.51-15.26,0-5.38,1.25-6.78,3.12-7.27,4.39-.5,1.28-.39,2.77.28,4.5,4.78,12.3,18.82,20.31,18.82,20.31,16.71,9.55,32.78,13.26,40.74,14.85,23.15,4.64,37.74,7.56,52.71.04,3.65-1.83,15.46-7.77,18.41-19.44,1.95-7.71-.81-14.68-2.65-18.7-12.09-26.37-43.13-53.09-48-57.23-25.82-21.95-38.8-32.62-84.48-69.13Z"/>
    <path class="cls-2" d="m660.04,569.44c-4.15-3.92-7.13-7.28-7.85-8.11-3.04-3.56-4.87-8.38-6.94-23.24-2.81-20.15-1.11-23.3-5.23-29.35-1.01-1.48-7.23-10.3-14.8-9.17-3.08.46-6.96,2.65-7.55,5.81-.87,4.64,6.12,7.16,10.88,15,5.16,8.5,4.35,17.75,4.07,20.9-1.29,14.68-11.86,24.2-19.09,30.72-5.22,4.71-15.95,14.37-32.02,17.56-8.28,1.65-19.4,1.86-31.13,7.27-3.79,1.75-7.88,4.15-7.64,6.55.13,1.27,1.43,2.16,2.49,2.89,3.54,2.43,7.47,2.46,8.43,2.46,18.12-.08,31.59-6.15,31.59-6.15,8.88-4,14.13-8.02,26.14-11.84,3.08-.98,7.54-2.24,10.86.05,2.66,1.84,3.98,5.53,3.58,8.46-.85,6.23-9.62,9.98-18.44,12.99-26.64,9.09-49.95,10.08-53.7,10.22-10.77.38-26.96.87-47.78-2.75-22.15-3.85-33.77-5.86-47.92-13.33,0,0-15.5-8.18-33.54-11.31-3.73-.65-9.49-1.39-11.52,1.52-1.79,2.57.22,6.72.43,7.15,3.31,6.66,12.74,8.08,21.85,9.48,23.48,3.61,35.22,5.41,36.82,5.85,21.67,5.89,17.99,17.96,36.27,22.83,17.13,4.56,22.07-5.59,60.36-6.93,8.72-.31,13.84-.49,21.25.2,21.47,1.99,28.06,8.11,41.27,5.22,8.73-1.91,14.46-6.46,19.64-10.57,5.67-4.5,20.3-16.13,21.15-33.77.09-1.92.72-15.06-6.39-21.66-.95-.88-2.58-2.15-5.54-4.95Z"/>
    <path class="cls-5" d="m509.01,150.65c-13.32-8.48-14.75-13.5-24.22-15.53-4.17-.89-6.13-.39-7.29.7-1.81,1.72-1.72,4.96-1,7.14,1.2,3.64,4.22,4.51,12.68,9.15,6.52,3.57,10.11,6.01,18.44,9.82,5.1,2.34,7.67,3.21,8.8,2.12,1.59-1.55-.59-6.13-.8-6.55-1.91-3.91-5.15-5.93-6.61-6.86Z"/>
    <path class="cls-16" d="m457.17,81.57c2.75,1.02,3.84,4.09,5.07,6.51,1.37,2.7,2.81,5.35,4.48,7.88,2.86,4.33,6.53,7.14,11.89,7.15,4.95.01,10.62-2.28,15.41-.31,3.32,1.36,3.3,3.6,4.01,6.71.55,2.42,1.45,4.61,2.99,6.58,2.77,3.57,7.03,5.92,11.43,6.8,4.36.87,7.5-1.07,11.65-1.3,5.1-.29,7.02,4.08,8.14,8.22,1.28,4.74,4.2,8.44,8.54,10.77s9.12-4.24,4.52-6.71c-2.42-1.3-4.25-2.87-5.11-5.59-.63-2-.81-4.05-1.74-5.96-2-4.09-5.95-7.24-10.35-8.4s-7.27.61-11.28,1.14c-5.07.67-9.95-2.81-10.94-7.73-1.07-5.28-2.87-9.36-8.08-11.7-4.68-2.11-9.68-1.63-14.63-1.02-2.76.34-5.84,1.17-8.07-.93s-3.54-5.19-4.85-7.73c-2.61-5.04-4.82-9.95-10.48-12.06-4.88-1.82-7.47,5.86-2.58,7.68h0Z"/>
    <path class="cls-8" d="m299.98,91.45c-6.09,3.21-12.35,6.09-18.49,9.2-11.9,6.03-20.55-.01-52.35-4.84-12.42-1.89-32.05-4.15-54.8.53-8.65,1.78-14.02,3.8-16.87,8.53-5.62,9.32,1.29,24.48,10.47,32.23,4.3,3.63,13.59,9.43,19.36,6.02,4.16-2.46,5.42-9.08,5.85-11.28.99-5.18-.43-6.85.59-9.56,2.45-6.52,14.83-7.65,19.43-7.98,33.25-2.37,55.85,4.86,55.85,4.86,20.1,6.43,52.48,16.79,77.76,40.11,10.79,9.96,18.25,13.11,33.16,19.42,3.95,1.67,10.1,4.04,16.42,1.7.42-.16,8.11-3.13,9.61-9.91,1.16-5.25-1.96-10.12-4.78-13.76-12.3-15.89-25.25-16.69-44-32-14.47-11.81-21.7-17.72-28.41-27.34-3.35-4.81-6.88-10.86-13.14-11.78-4.11-.6-7.11,1.35-15.65,5.85Z"/>
    <path class="cls-20" d="m409.52,215.66c-10.8-9.41-21.36-17.05-45.36-29.99-5.71-3.08-11.55-6.11-14.39-3.84-2.74,2.19-1.24,8.17-1.12,8.61,2.72,10.37,14.87,10.01,32.2,21.71,15.68,10.58,20.21,20.63,30.73,19.54.86-.09,5.98-.62,7.02-3.47,1.17-3.21-3.45-7.66-9.09-12.57Z"/>
    <path class="cls-1" d="m54.88,288.7c-8.33,1.56-13.86,6.16-15.33,7.57-4.07,3.9-9.23,14.22,5.99,56.89,8.78,24.62,25.55,63.38,55.63,89.5,5.42,4.7,16.53,14.2,21.51,11.09,2.67-1.66,3.31-6.77,2.01-10.58-2.6-7.67-11.76-6.33-21.3-15.21-7.89-7.34-12.79-18.65-9.89-22.01,2.3-2.67,9.3-.1,10.78.45,14.28,5.24,16.46,18.58,28.47,31.13,7.11,7.42,9.58,6.14,27.76,17,32.45,19.4,28.27,25.72,53.62,39.85,22.66,12.63,36.36,13.36,41.57,27.12,2.09,5.51,3.06,13.77-.91,17.25-6.49,5.7-23-4.15-26.27-6.09-12.99-7.74-17.46-15.94-27.19-27.26-12.31-14.31-25.7-29.87-45.02-36.59-20.16-7.01-27.69,2.25-47.02-5.78-12.85-5.34-20.84-14.15-30.89-27.07-38.34-49.3-56.94-94.54-65.76-118.47-9.48-25.7-14.15-44.35-6.87-62.7,1.91-4.82,5.91-14.91,15.09-18.41,14.37-5.49,32.78,8.46,46.34,18.72,11.62,8.8,12.85,12.88,25.99,21.09,4.3,2.69,8.37,4.87,13.1,9.72,4.91,5.03,11.55,11.84,10.37,20.39-.88,6.41-6.09,13.45-12.19,14.11-6.53.71-12.36-6.06-20.67-15.72-7.53-8.75-8.54-12.85-14.72-15.28-5.85-2.3-11.55-1.23-14.22-.73Z"/>
    <path class="cls-11" d="m272.88.33c-4.3-.66-8.46-.58-24.11,2.62-6.58,1.34-12.45,2.68-12.35,3.59.09.83,4.97-.11,10.04,2.79,1.67.96,5.55,3.18,6.36,6.77,1.49,6.62-9.02,11.08-7.51,17.78.7,3.12,3.67,5.21,5.91,5.97,2.51.85,5.63.55,13.15-4.05,10.18-6.22,18.74-11.45,20.55-20.91.34-1.76,1.2-6.26-1.32-9.83-2.39-3.39-6.53-4.09-10.71-4.74Z"/>
    <path class="cls-6" d="m164.45,27.62c-4.13,1.47-30.54,10.85-37.06,32.4-2.65,8.76-1.99,19.46-1.11,33.79.47,7.6,1.41,14.96-3.07,21.93-.93,1.45-4.31,6.69-10,7.89-7.65,1.61-14.74-5.06-19.34-9.52-5.97-5.79-23.61-22.87-20.22-48.17,3.07-22.9,21.01-34.93,24.56-37.31,8.89-5.96,17.48-7.95,28.19-9.69,36.91-5.98,67.2-3.79,70.3-3.55,8.91.7,47.19,4.01,98.05,20.42,17.95,5.79,30.62,11.01,43,16.11,75.97,31.27,89.19,51.91,112.39,59.95.61.21,10.96,3.78,17.57,13.01,3.43,4.79,2.59,6.53,2.39,6.88-1.79,3.21-11.42.9-13.2.47-15.14-3.63-24.83-15.49-30.86-21.97-2.35-2.53-35.48-37.32-73.85-39.82-13.79-.9-17.26,3.09-28.81-.68-12.49-4.08-24.01-13.84-34.09-22.39-4.85-4.11-5.53-5.06-8.04-7.18-21.43-18.06-53.13-17.42-86.76-16.33-20.87.68-27.41,2.82-30.04,3.75Z"/>
    <path class="cls-11" d="m351.52,594.68c5.34,3.8,10.71,7.61,16.55,10.62,5.14,2.65,11.08,5.22,16.94,3.41,2.57-.79,4.77-3.14,4.07-6.05-.59-2.48-3.29-4.92-6.05-4.07-.59.18-1.18.31-1.79.41,1-.16-.25,0-.51-.01-.2,0-2.06-.24-.98-.04-.46-.09-.92-.22-1.37-.35-2.39-.7-4.25-1.66-6.21-2.73-5.21-2.86-10.06-6.3-14.89-9.74-2.2-1.56-5.73-.94-7.16,1.39s-.96,5.48,1.39,7.16h0Z"/>
    <circle class="cls-11" cx="399.4" cy="607.66" r="5.22"/>
    <circle class="cls-11" cx="688.59" cy="649.31" r="5.22"/>
    <circle class="cls-11" cx="611.69" cy="346.71" r="5.22"/>
    <g>
      <path class="cls-9" d="m331.86,96.72c6.6,4.54,13.19,9.09,19.79,13.63,13.74.05,27.48.09,41.22.14-8.2-4.58-16.4-9.17-24.6-13.75-12.14,0-24.27-.01-36.41-.02Z"/>
      <path class="cls-13" d="m331.86,96.72v32.3c6.6,4.54,13.19,9.09,19.79,13.63,0-10.76,0-21.52.01-32.28-6.6-4.55-13.2-9.1-19.8-13.65Z"/>
      <path class="cls-12" d="m351.65,110.35v32.33h40.98c.08-10.73.16-21.46.24-32.19-13.74-.05-27.48-.09-41.22-.14Z"/>
      <path class="cls-18" d="m380.76,124.07l2.62-2.17-2.85-3.9c-.97.55-1.95,1.1-2.92,1.65l-1.58-1.05.08-2.62c-1.93-.03-3.85-.05-5.78-.07l.08,3.75c-.53.45-1.05.9-1.58,1.35l-3-1.05c-.89,1.67-1.78,3.34-2.67,5.01.74.38,1.48.76,2.22,1.14v2.55l-2.02,2.25,2.4,3.75,2.55-1.5,1.88.6v3.07c1.97-.02,3.95-.05,5.92-.07.03-1.25.05-2.5.07-3.75l1.58-1.2,2.85.9,2.62-4.65-2.55-1.8.08-2.17Zm-4.35,4.46c-.88,1.24-2.65,2.25-4.44,1.62-1.76-.61-2.63-2.49-2.45-4.11.23-2.12,2.17-3.11,2.32-3.18.83-.41,1.59-.4,1.79-.4.17,0,1.83.08,2.85,1.39,1.06,1.37.86,3.35-.07,4.67Z"/>
    </g>
    <g>
      <circle class="cls-11" cx="109.17" cy="207.9" r="3.2"/>
      <path class="cls-9" d="m73.9,192.79c8.53,5.88,17.06,11.76,25.6,17.64,17.77.06,35.55.12,53.32.18-10.61-5.93-21.22-11.86-31.83-17.79-15.7,0-31.4-.02-47.09-.03Z"/>
      <path class="cls-13" d="m73.9,192.79v41.78c8.53,5.88,17.06,11.76,25.6,17.64,0-13.92.01-27.84.02-41.76-8.54-5.89-17.08-11.77-25.61-17.66Z"/>
      <path class="cls-12" d="m99.5,210.43v41.82h53.01c.11-13.88.21-27.76.32-41.64-17.77-.06-35.55-.12-53.32-.18Z"/>
      <path class="cls-18" d="m133.45,220.36c-2.29-1.99-5.57-2.66-8.45-1.96-4.58,1.12-7.42,5.55-7.58,9.61-.09,2.19.62,3.93,1.11,4.91,2.87,4.8,5.74,9.59,8.61,14.39,2.55-4.09,5.1-8.17,7.65-12.26,3.11-5.33,2.31-11.53-1.33-14.69Zm-2.35,7.68c-.22,1.58-1.34,3.17-3.06,3.59-2.22.54-4.64-1.06-5.06-3.26-.32-1.67.6-3.26,1.8-4.12.09-.07,2.34-1.62,4.46-.4,1.58.91,2.05,2.78,1.86,4.19Z"/>
    </g>
    <g>
      <path class="cls-9" d="m700.3,260.97c-10.3-1.09-20.61-2.18-30.91-3.28-13.53-11.53-27.06-23.05-40.59-34.58,11.91,2.41,23.83,4.81,35.74,7.22,11.92,10.21,23.84,20.43,35.76,30.64Z"/>
      <path class="cls-13" d="m700.3,260.97c-9.07,10.57-18.13,21.14-27.2,31.72-10.3-1.09-20.61-2.18-30.91-3.28,9.06-10.57,18.12-21.14,27.17-31.71,10.31,1.09,20.62,2.18,30.94,3.27Z"/>
      <path class="cls-12" d="m669.39,257.7c-9.07,10.58-18.15,21.16-27.22,31.74l-40.24-34.51c8.96-10.6,17.91-21.21,26.87-31.81,13.53,11.53,27.06,23.05,40.59,34.58Z"/>
      <path class="cls-18" d="m643.49,251.37c-2.63-.47-5.27-.94-7.9-1.42-.3-2.11-1.97-3.74-4-3.97-2.09-.24-4.24,1.06-4.79,3.08-.44,1.62.26,3.3,1.37,4.28.68.6,1.42.85,1.86.95.41,2.97.81,5.94,1.22,8.9-.15.11-2.28,1.69-2.12,4.16.16,2.45,2.5,4.61,5.07,4.35,1.9-.2,3.7-1.69,3.98-3.77.3-2.18-1.16-4.36-3.46-4.96-.64-2.89-1.28-5.77-1.92-8.66.35-.36.7-.75,1.06-1.17.3-.35.58-.69.84-1.03,2.73.42,5.46.84,8.19,1.26.13.5.54,1.82,1.78,2.8.22.17,2.43,1.86,4.64.8,1.87-.9,2.71-3.27,2.07-5.15-.05-.14-.66-1.86-2.44-2.49-1.59-.57-2.98.13-3.52.4-1.01.5-1.62,1.21-1.93,1.63Z"/>
    </g>
  </g>
</svg>