<?xml version="1.0" encoding="UTF-8"?>
<svg id="_レイヤー_2" data-name="レイヤー 2" xmlns="http://www.w3.org/2000/svg" xmlns:xlink="http://www.w3.org/1999/xlink" viewBox="0 0 759.07 610.8">
  <defs>
    <style>
      .cls-1 {
        stroke: #bfbace;
      }

      .cls-1, .cls-2 {
        stroke-width: 2px;
      }

      .cls-1, .cls-2, .cls-3 {
        stroke-miterlimit: 10;
      }

      .cls-1, .cls-4 {
        fill: #fff;
      }

      .cls-5 {
        fill: url(#_名称未設定グラデーション_9-4);
      }

      .cls-5, .cls-6, .cls-7, .cls-8, .cls-9, .cls-10, .cls-11, .cls-12, .cls-13, .cls-14, .cls-15, .cls-16, .cls-17, .cls-18, .cls-19, .cls-20, .cls-4, .cls-21 {
        stroke-width: 0px;
      }

      .cls-6 {
        fill: url(#_名称未設定グラデーション_9-2);
      }

      .cls-7 {
        fill: url(#_名称未設定グラデーション_9-3);
      }

      .cls-8 {
        fill: url(#_名称未設定グラデーション_9-5);
      }

      .cls-9 {
        fill: url(#_名称未設定グラデーション_9-7);
      }

      .cls-10 {
        fill: url(#_名称未設定グラデーション_9-6);
      }

      .cls-11 {
        fill: url(#_名称未設定グラデーション_9-8);
      }

      .cls-12 {
        fill: url(#_名称未設定グラデーション_3-2);
      }

      .cls-13 {
        fill: url(#_名称未設定グラデーション_3-3);
      }

      .cls-2 {
        fill: #bfbace;
        stroke: #fff;
      }

      .cls-3 {
        fill: #54a0d1;
        stroke: #79b2d6;
      }

      .cls-14 {
        fill: url(#_名称未設定グラデーション_9);
      }

      .cls-15 {
        fill: url(#_名称未設定グラデーション_3);
      }

      .cls-16 {
        fill: #7bb9e0;
      }

      .cls-17 {
        fill: #313333;
      }

      .cls-18 {
        fill: #2275b4;
      }

      .cls-19 {
        fill: #8cc490;
      }

      .cls-20 {
        fill: #7cb8e0;
      }

      .cls-21 {
        fill: #e3aecb;
      }
    </style>
    <linearGradient id="_名称未設定グラデーション_3" data-name="名称未設定グラデーション 3" x1="29.19" y1="272.36" x2="177.75" y2="272.36" gradientTransform="translate(40.77 -29.81) rotate(12.76)" gradientUnits="userSpaceOnUse">
      <stop offset=".02" stop-color="#e8b6bc"/>
      <stop offset=".98" stop-color="#84b9df"/>
    </linearGradient>
    <linearGradient id="_名称未設定グラデーション_3-2" data-name="名称未設定グラデーション 3" x1="111.2" y1="161.38" x2="142.66" y2="161.38" xlink:href="#_名称未設定グラデーション_3"/>
    <linearGradient id="_名称未設定グラデーション_3-3" data-name="名称未設定グラデーション 3" x1="151.97" y1="103.95" x2="328.18" y2="103.95" xlink:href="#_名称未設定グラデーション_3"/>
    <linearGradient id="_名称未設定グラデーション_9" data-name="名称未設定グラデーション 9" x1="468.63" y1="196.67" x2="708.28" y2="196.67" gradientUnits="userSpaceOnUse">
      <stop offset="0" stop-color="#f5d679"/>
      <stop offset=".8" stop-color="#e8b6bc"/>
    </linearGradient>
    <linearGradient id="_名称未設定グラデーション_9-2" data-name="名称未設定グラデーション 9" x1="570.41" y1="376.82" x2="616.62" y2="376.82" xlink:href="#_名称未設定グラデーション_9"/>
    <linearGradient id="_名称未設定グラデーション_9-3" data-name="名称未設定グラデーション 9" x1="182.82" y1="440.39" x2="212.12" y2="440.39" xlink:href="#_名称未設定グラデーション_9"/>
    <linearGradient id="_名称未設定グラデーション_9-4" data-name="名称未設定グラデーション 9" x1="222.59" y1="334.78" x2="242.44" y2="334.78" xlink:href="#_名称未設定グラデーション_9"/>
    <linearGradient id="_名称未設定グラデーション_9-5" data-name="名称未設定グラデーション 9" x1="245.12" y1="323.12" x2="286.57" y2="323.12" xlink:href="#_名称未設定グラデーション_9"/>
    <linearGradient id="_名称未設定グラデーション_9-6" data-name="名称未設定グラデーション 9" x1="161.24" y1="385.98" x2="558.3" y2="385.98" xlink:href="#_名称未設定グラデーション_9"/>
    <linearGradient id="_名称未設定グラデーション_9-7" data-name="名称未設定グラデーション 9" x1="268.46" y1="248.99" x2="507.7" y2="248.99" xlink:href="#_名称未設定グラデーション_9"/>
    <linearGradient id="_名称未設定グラデーション_9-8" data-name="名称未設定グラデーション 9" x1="161.24" y1="413.8" x2="558.3" y2="413.8" xlink:href="#_名称未設定グラデーション_9"/>
  </defs>
  <g id="_レイヤー_1-2" data-name="レイヤー 1">
    <path class="cls-17" d="m206.26,52.17c1.05.02,4.92.24,8.09,3.25,1.82,1.73,2.65,3.66,3.02,4.76,7.82,25.53,15.64,51.05,23.46,76.58.39,1.51,1.43,6.38-1.16,11.16-1.16,2.14-2.61,3.42-2.96,3.73-4.36,3.93-50.4,53.59-117.93,126.86-.31.36-5.77,6.47-12.69,5.03-2.39-.5-4.13-1.72-5.2-2.67,44.21-45.94,88.42-91.89,132.63-137.83-.08-2.06-.15-4.12-.23-6.19-7.88-26.21-15.75-52.42-23.63-78.64-1.14-2.01-2.27-4.03-3.41-6.04Z"/>
    <path class="cls-1" d="m200.63,54.12c-41.96,45.07-83.93,90.15-125.89,135.22-.79.84-2.33,2.71-2.92,5.6-.38,1.88-.22,3.49-.03,4.52,8.08,25.12,16.16,50.24,24.24,75.36,1.4,5.29,4.93,8.52,7.86,8.28.55-.05,1.79-.27,3.14-1.76,38.96-42.21,77.92-84.42,116.89-126.63,3.45-3.61,6.39-6.8,8.78-9.44.61-.68,1.59-1.78,2.11-3.53.6-2.02.29-3.89-.02-5.02-8.4-26.87-16.8-53.75-25.19-80.62-.57-2.21-2.44-3.84-4.56-4.04-2.71-.26-4.33,1.95-4.42,2.07Z"/>
    <path class="cls-17" d="m391.71,176.86c1.15-1.02,5.5-4.64,11.89-4.57,3.66.04,6.47,1.28,7.97,2.09,33.76,19.53,67.51,39.07,101.27,58.6,1.92,1.23,7.89,5.4,9.86,13.09.89,3.44.61,6.25.55,6.93-.76,8.55-.62,107.47,0,253.04.02.69.27,12.66-8.57,18-3.05,1.84-6.13,2.27-8.22,2.32,1.61-93.14,3.21-186.27,4.82-279.41-2.13-2.13-4.26-4.26-6.4-6.4-34.5-20.21-69-40.42-103.51-60.64-3.22-1.02-6.44-2.05-9.66-3.07Z"/>
    <path class="cls-15" d="m122.34,202.37c-8.94,2.55-10.87,1.36-16.97,4.57-4.79,2.51-6.6,4.82-11.4,5.39-1.88.22-7.22.85-10.01-2.71-2.59-3.3-.88-7.96-.81-8.15,1.21-3.19,4.02-4.75,8.74-7.32,5.62-3.05,7.3-2.59,10.18-5.32,2.67-2.53,4.95-6.46,3.88-7.88-.99-1.31-4.64-.17-6.71.48-2.79.88-4.69,2.05-7.45,3.78-5.52,3.46-8.28,5.19-8.36,5.25-15.71,10.87-24.94,18.26-24.94,18.26-12.59,9.86-18.89,14.79-25.71,21.63-13.12,13.15-18.22,22.56-28.41,41.38-2.65,4.89-5.94,11.43-3.51,14.26,1.34,1.55,4.22,1.77,6.27.92,2.75-1.15,3.3-3.94,5.89-10.62,5.08-13.12,7.83-14.89,9.73-15.48,1.44-.44,3.58-.56,4.37.49,1.03,1.36-.57,4.15-1.58,5.87-5.89,10.05-8.83,15.08-9.26,15.58-11.49,13.53-17.75,40.4-12.46,44,1.12.76,3.09.7,4.42.26,2.76-.92,4.06-3.88,4.71-5.41,3.58-8.41,6.46-17.64,7.33-20.26,1.34-4.04,2.9-7.14,6.01-13.33,7.27-14.47,18.54-24.78,40.78-44.8,8.55-7.7,15.39-13.41,18.3-11.54,1.18.75,1.57,2.65,1.33,4.04-.58,3.35-4.9,3.87-10.96,7.73-3.28,2.09-9.75,6.2-11.38,12.86-.63,2.58-.85,6.77,1.18,7.99,2.41,1.45,6.83-2.03,8.47-3.31,5.96-4.68,7.06-9.29,10.41-14.08,3.69-5.27,8.51-7.87,18.15-13.07,1-.54,12.48-6.63,26.42-9.51,7.07-1.46,10.61-2.19,14.7-2.45,4.67-.3,7.17,0,7.45-.95.41-1.41-4.28-4.85-9.42-5.28-1.94-.16-3.48.14-5.5.55-5.34,1.07-6.55,2.78-9.62,2.31-2.04-.31-4.7-1.56-4.8-3.05-.1-1.52,2.5-2.95,10.81-6.18,12.42-4.82,18.63-7.24,23.21-7.29,8.17-.09,12.73,2.81,14.39.51,1.42-1.96-.26-6.4-3.07-8.93-6.16-5.53-17.75-1.92-24.76.27-10.18,3.17-9.2,5.45-20.04,8.54Z"/>
    <path class="cls-12" d="m138.5,147.07c-3.59,2.53-7.67,3.92-15.84,6.71-4.56,1.56-6.29,1.67-8.41,3.73-.5.49-3.94,3.84-2.78,6.61.78,1.85,3.27,2.62,5.04,2.59,1.5-.03,2.62-.63,4.83-2.12,4.77-3.22,4.49-3.74,6.78-5.06,2.5-1.44,2.7-.75,10.12-3.5,2.71-1,3.75-1.49,4.89-2.43.64-.52,4.26-3.5,3.36-6.32-.33-1.05-1.27-1.98-2.37-2.31-2.06-.61-4.13,1.05-5.63,2.1Z"/>
    <path class="cls-13" d="m179.06,125.8c-.56,3.22,3.16,4.27,3.43,9.19.44,7.88-8.55,14.58-10.97,16.38-7.89,5.88-12.13,4.12-16.47,9.91-2.62,3.49-5.04,9.42-2.66,13.04,1.78,2.72,5.56,3.05,9.69,3.36,4.95.37,9.88-.29,20.59-3.75,7.21-2.33,10.81-3.5,15.19-5.56,11.63-5.47,13.27-9.5,25.31-16.91,6.32-3.89,12.72-7.83,21.81-10.44,9.32-2.68,10.22-.73,29.92-3.96,5.75-.94,13.67-2.42,21.19-7.68,6.8-4.76,6.75-8.05,6.67-8.94-.02-.17-.26-2.47-1.96-3.51-1.63-.99-3.58-.22-8.88,1.97-7.67,3.18-8.91,3.79-11.37,4.17-2.95.46-6.12.96-8.22-.94-2.97-2.7-1.54-8.17-1.46-8.46,1.41-5.11,6.26-7.86,11.09-10.37,12.36-6.42,18.54-9.63,27.23-11.92,15.02-3.96,22.54-5.94,29.23-5.18,2.14.24,7.03.96,10.7-1.87,2.21-1.71,4.23-4.91,3.42-7.66-.87-2.95-4.66-4.14-6.6-4.71-13.93-4.16-33.15,3.53-33.15,3.53-14.22,5.69-21.1,10.19-47.23,24.41-17.8,9.69-21.02,11.09-26.1,12.33-11.14,2.72-14.53.57-32.29,3.11-10.88,1.56-26.99,4-28.12,10.45Z"/>
    <path class="cls-17" d="m609.52,82.69c-1.05.13-4.87.73-7.73,4.04-1.64,1.9-2.27,3.9-2.53,5.04-5.23,26.18-10.46,52.36-15.7,78.53-.24,1.54-.79,6.49,2.27,10.99,1.37,2.01,2.94,3.14,3.31,3.42,4.73,3.48,55.49,48.29,130,114.45.34.32,6.38,5.86,13.12,3.74,2.32-.73,3.94-2.13,4.91-3.17-48.57-41.3-97.15-82.6-145.72-123.9-.13-2.06-.26-4.12-.39-6.18,5.22-26.87,10.44-53.73,15.66-80.6.93-2.12,1.86-4.23,2.79-6.35Z"/>
    <path class="cls-1" d="m615.32,84.07c46.25,40.66,92.5,81.32,138.76,121.98.87.75,2.59,2.47,3.46,5.28.57,1.83.57,3.45.48,4.49-5.53,25.8-11.07,51.6-16.6,77.4-.87,5.4-4.06,8.97-7,9.02-.55,0-1.81-.09-3.3-1.44-42.98-38.11-85.96-76.22-128.94-114.34-3.79-3.25-7.03-6.13-9.68-8.52-.68-.61-1.76-1.61-2.45-3.3-.8-1.95-.67-3.84-.48-5,5.67-27.58,11.35-55.15,17.02-82.73.35-2.26,2.04-4.06,4.13-4.47,2.67-.53,4.51,1.51,4.6,1.62Z"/>
    <path class="cls-19" d="m285.94,163.69c-9.65.74-21.06,5-20.62,7.89.16,1.08,2.24,1.72,6.38,3.02,6.04,1.88,6.72.78,8.92,2.22,1.55,1.01,2.03,2.1,6.43,11.46,1.81,3.86,2.73,5.79,3.38,5.87,3.09.37,8.69-10.5,7.02-20.58-.38-2.3-1.14-6.5-4.51-8.67-2.01-1.29-4.21-1.4-6.99-1.19Z"/>
    <path class="cls-16" d="m580.79,143.77c-1.59-3.32-5.85-4.22-9.27-4.94-10.68-2.26-19.81,1.75-25.8,4.48-1.3.59-10.13,4.67-9.58,6.64.28.99,2.85,1.14,4.63,1.24,5.76.32,8.06-1.87,10.2-.46,2.02,1.33,2.01,4.63,2.01,5.72,0,3.7-2.06,4.78-3.24,8.65-1.31,4.3-1.02,10.33,1.7,11.89,2.16,1.24,5.3-.64,9.27-3.09,11.25-6.94,16.15-16.07,17.61-19,2.3-4.65,3.94-8.06,2.47-11.12Z"/>
    <path class="cls-14" d="m648.01,106.85c-3.72,8.27.63,18.47,4.69,27.69,5.63,12.79,8.94,13.04,16.19,28.97,3.52,7.73,4.91,12.44,3.41,17.46-.21.71-2.85,9.08-9.8,10.22-3.52.58-7.39-.83-9.8-3.41-3.5-3.74-1.42-7.23-4.26-15.33-.91-2.59-3.95-11.25-8.52-11.5-3.56-.19-6.49,4.8-7.67,6.82-3.59,6.12-3.87,12.05-3.83,21.72.07,20.46,1.43,19.08.43,26.84-1.42,11-2.13,16.5-4.69,21.3-.41.76-1.8,3.28-2.13,6.82-.22,2.27-.67,7.05,2.56,9.37,2.53,1.82,6.67,1.65,8.74-.35,1.91-1.84.62-3.83,2.65-9.99,1.58-4.8,3.04-5.63,3.67-5.91,1.72-.76,3.87-.34,5.3.61,2.14,1.43,3.34,4.54,3.06,10.8-.99,21.87-13.25,36.69-13.25,36.69-9.09,10.98-16.11,11.85-18.14,21.4-.37,1.73-1.82,8.53,2.24,13.05,2.39,2.66,6.68,4.53,9.99,3.26,2.69-1.03,3.89-3.8,4.48-5.1,3.1-6.7,3.57-2.94,15.49-19.98,5.82-8.32,9.99-14.27,14.27-22.83,4.66-9.31,3.61-10.02,11.01-26.5,5.61-12.49,7.75-15.5,10.19-18.14,4.97-5.38,7.06-4.76,13.66-11.42,5.78-5.83,11.33-11.42,10.19-17.33-.75-3.92-4.27-7.05-7.34-9.78-2.94-2.62-4.39-2.99-6.32-4.48-6.32-4.9-7.36-13.79-8.15-21.4-1.29-12.43,1.7-13.59.82-23.65-1.04-11.85-6.09-20.44-9.17-25.68-6.42-10.91-13.99-17.26-22.83-24.66-3.75-3.14-11.1-9.3-19.36-13.86-21.96-12.12-44.24-9.55-72.36-6.32,0,0-28.9,3.33-44.85,17.33-1.29,1.13-4.88,4.28-4.08,6.52.37,1.04,1.73,2.01,6.12,2.45,6.35.63,10.98-.67,17.73-2.45,0,0,5.36-1.41,19.98-4.08,4.11-.75,7.37-1.28,9.38.61,1.94,1.83,2.11,5.35,1.43,7.54-1.48,4.72-8.09,6.92-45.25,11.62-21.3,2.69-31.95,4.04-33.23,3.87-4.17-.55-10.33-1.8-15.7,1.63-3.38,2.16-7.23,6.69-6.12,10.8.99,3.67,5.45,5.25,6.73,5.71,6.64,2.36,13.23-.34,15.49-1.22,12.36-4.83,26.14-4.65,39.14-7.34,18.05-3.74,27.24-5.61,35.26-6.12,13.61-.85,20.42-1.28,28.13,1.02,27.56,8.21,29.56,8.97,29.56,8.97,1.54.58,5.37,2.06,7.13.41,1.41-1.32,1.14-4.29.2-6.32-1.82-3.97-6.32-4.69-16.51-7.75-9.77-2.92-14.73-4.44-18.35-6.93-3.42-2.35-9.36-6.45-10.4-13.66-.89-6.18,2.17-12.41,6.52-15.9,6.36-5.1,14.51-3.6,24.05-1.83,3.84.71,13.83,2.93,23.65,10.4,4.32,3.28,10.31,7.96,10.19,14.06-.05,2.35-.98,3.83-1.62,5.26Z"/>
    <path class="cls-6" d="m575.94,380.58c-2.39,1.27-5.65,2.89-5.52,4.86.12,1.93,3.42,3.16,4.42,3.53,8.97,3.36,19.55-2.14,26.28-5.74,6.87-3.67,16.18-8.66,15.46-13.91-.4-2.9-3.68-4.6-4.2-4.86-4.22-2.11-8.85-.04-16.56,3.53-10.68,4.95-7.97,6.26-19.88,12.59Z"/>
    <path class="cls-20" d="m653.66,333.75c-2.39-.36-5,1.11-5.53,3.6-.51,2.38,1.08,4.66,3.09,5.4,2.8,1.03,6.37-.95,6.69-3.86.26-2.36-1.69-4.77-4.25-5.15Z"/>
    <path class="cls-21" d="m109.91,393.84c.71,10.41,1.87,16.54,3.16,20.68.93,2.98,1.41,4.48,2.58,5.46,3.35,2.78,7.42-.14,12.64,2.58.77.4,4.48,2.34,4.88,5.46.58,4.41-5.84,8.49-9.19,10.05-9,4.18-18.01.41-18.95,0-1.2-.53-10.03-4.56-13.21-14.65-3.06-9.7,1.39-17.73,2.87-20.39,4.14-7.45,12.04-13.71,14.42-12.21.65.41.68,1.26.8,3.02Z"/>
    <path class="cls-20" d="m149.77,351.35c-2.53.03-4.79,2.03-4.89,4.65-.1,2.67,2.09,4.81,4.53,5.01,2.87.23,5.54-2.25,5.37-5.13-.15-2.51-2.41-4.57-5.01-4.53Z"/>
    <path class="cls-7" d="m200.24,432.37c-3.9.5-6.49,1.98-10.98,4.53-4.29,2.44-6.43,3.7-6.44,5.49-.02,3.12,6.42,5.29,7.04,5.49.5.16,9.24,2.85,16.35-2.74,2.83-2.23,7.08-7.1,5.61-10.26-1.75-3.77-10.47-2.65-11.57-2.51Z"/>
    <path class="cls-5" d="m231.95,327.11c-6.21,2.94-8.14,8.96-8.58,10.34-.62,1.94-1.29,4.02-.23,5.4,1.6,2.1,5.99,1.07,7.52.7,1.55-.37,10-2.59,11.51-9.4.51-2.3.5-6.29-2-7.99-2.56-1.74-6.19-.02-8.22.94Z"/>
    <path class="cls-8" d="m266.72,310.93c-4.52,5.23-7.76,9.76-14.06,18.6-6.3,8.84-8.55,12.47-7.14,15.14,1.01,1.9,3.41,2.44,4.11,2.59,5.15,1.15,9.45-3.05,19.68-11.46,13.09-10.77,14.16-10.56,15.57-13.84,4.02-9.32.21-22.08-4.76-23.14-2.43-.52-6.12,3.68-13.41,12.11Z"/>
    <path class="cls-19" d="m257.05,55.95c2.56-1.92,5.62-3.33,8.86-3.12,3.16.2,5.85,1.83,8.71,3.29,5.92,3.03,11.93,4.71,18.55,3.46,2.97-.56,5.8-1.57,8.46-2.99,3.96-2.12,6.81-5.38,9.37-9,2.68-3.8,4.8-8.08,7.82-11.64,2.35-2.77,5.21-3.65,8.77-3.34-.63-.05.93.14,1.16.17,1.15.16,2.3.34,3.45.52,2.2.35,4.4.73,6.59,1.16,3.06.59,6.09,1.27,9.12,1.98,3.69.86,7.62,1.99,11.43,1.39,5.43-.85,9.22-4.34,11.85-9.01,1.39-2.47,2.61-5.03,4.2-7.38,2.22-3.28,5.15-6.09,8.3-8.46,3.15-2.37,5.89-4.7,9.91-4.74,3.43-.03,6.56,1.84,9.76,3.23,4.51,1.96,9.15,3.25,14.12,3.11,4.72-.13,9.15-1.53,13.37-3.54,2.02-.96,2.38-3.97,1.29-5.71-1.31-2.08-3.68-2.26-5.71-1.29-2.84,1.35-6.86,2.33-10.42,2.28-3.74-.06-7.17-1.42-10.52-2.93-3.43-1.55-6.85-3.02-10.64-3.32-3.75-.3-7.39.6-10.64,2.48-7.14,4.12-13.41,10.2-17.55,17.31-1.34,2.3-2.42,4.78-3.93,6.98.47-.68-.27.33-.45.54-.16.18-1.36,1.28-.72.78-.44.34-.91.64-1.4.9-.63.34.89-.31-.31.14-.22.08-.43.16-.66.23-.32.1-.65.16-.97.26.36-.12.66-.04-.12,0-.37.02-.73.05-1.1.05s-1.63-.16-.29.02c-1.86-.26-3.67-.62-5.5-1.04-7.06-1.63-14.15-3.16-21.35-4.1-3.64-.47-7.36-.5-10.8.98-4.46,1.91-7.23,5.64-9.84,9.57-2.53,3.81-4.69,7.99-7.86,11.34-2.18,2.3-4.95,3.68-7.94,4.54-.7.2-1.4.36-2.1.52-.79.17-.05.01.1-.01-.26.04-.53.09-.79.12-1.2.14-2.43.24-3.64.13-3.68-.32-6.91-2.2-10.13-3.83-3.75-1.9-7.62-3.43-11.89-3.41-4.42.02-8.83,1.76-12.34,4.39-1.79,1.34-2.55,3.71-1.29,5.71,1.12,1.77,3.91,2.64,5.71,1.29h0Z"/>
    <path class="cls-20" d="m149.41,79.86c-2.47-.53-5.12.92-5.8,3.46-.69,2.58.97,5.16,3.32,5.89,2.75.86,5.9-.97,6.37-3.82.41-2.48-1.34-4.99-3.89-5.53Z"/>
    <path class="cls-20" d="m376.84,64.79c-2.47-.53-5.12.92-5.8,3.46-.69,2.58.97,5.16,3.32,5.89,2.75.86,5.9-.97,6.37-3.82.41-2.48-1.34-4.99-3.89-5.53Z"/>
    <path class="cls-20" d="m722.89,145.4c-2.53.03-4.79,2.03-4.89,4.65-.1,2.67,2.09,4.81,4.53,5.01,2.87.23,5.54-2.25,5.37-5.13-.15-2.51-2.41-4.57-5.01-4.53Z"/>
    <path class="cls-2" d="m387.62,184.55c-.06,89.97-.13,179.94-.19,269.92-.01,1.68.21,5.22,2.45,8.9,1.46,2.39,3.23,3.95,4.46,4.86,33.63,18.84,67.26,37.68,100.9,56.52,6.76,4.26,13.75,4.21,16.65,1.03.54-.59,1.65-2.08,1.61-5.01-.3-83.92-.6-167.85-.9-251.77.11-7.29.07-13.63,0-18.84-.02-1.33-.07-3.49-1.25-5.88-1.37-2.76-3.56-4.44-5.01-5.36-35.72-20.4-71.43-40.8-107.15-61.2-2.81-1.79-6.42-1.68-8.89.21-3.15,2.42-2.7,6.4-2.67,6.61Z"/>
    <path class="cls-10" d="m225.07,381.05c-.57-.27-3.43-1.66-4.05-4.27-.61-2.58,1.47-4.23,3.6-9.45,1.64-4.02,2.45-6.02,2.02-8.1-1.08-5.22-8.59-8.25-13.73-9-2-.29-4.96-.43-9.45.67-6.99,1.73-9.73,4.51-23.85,14.63-6.93,4.97-10.25,7.15-13.95,11.93-4.94,6.38-4.58,9.67-4.27,11.03.56,2.52,2.45,5.27,5.18,6.3,2.37.9,5.55,0,11.93-1.8,3.05-.86,4.83-1.54,7.2-.9.74.2,2.85.77,4.05,2.47,2.41,3.43-1.68,7.39-.9,13.28.68,5.17,4.7,8.58,6.53,10.12,7.22,6.11,16.45,5.17,18.23,4.95,9.34-1.16,17.3-7.63,24.53-13.5,1.68-1.37,4.87-3.16,11.25-6.75,1.56-.88,3.74-2.06,6.53-1.8.48.05,3.46.33,4.95,2.25,2.14,2.76.13,7.56-1.58,11.48-7.5,17.29-8.3,16.97-9.68,21.38-3.12,10.01-2.55,22.98,3.83,27.9.72.56,3.6,2.78,7.2,2.25,2.06-.3,4.67-1.55,5.63-3.82.33-.77.32-1.33-.22-5.85-.59-4.91-.76-5.75-.22-6.98.71-1.63,2.38-3.31,4.05-3.15.66.06,1.52.44,2.47,1.8,2.76,3.92,1.85,9.66,1.8,12.15-.11,5.09,3.12,8.91,13.5,18.9,15.14,14.57,22.71,21.86,30.83,27.45,18.5,12.74,27.83,13.91,30.6,14.18,3.51.34,14.9,1.45,18-4.27,1.97-3.63.03-8.97-2.02-11.93-2.61-3.76-7.89-7.23-10.58-9-2.23-1.47-4.01-2.43-4.27-4.27-.29-2.04,1.42-4.1,2.92-5.17,3.66-2.6,8.59-1.09,13.05,0,4.75,1.16,14.23,3.48,22.5,3.15,7.69-.31,8.94-2.69,24.08-4.5,5.19-.62,8.14-.71,9.68,1.12,1.02,1.22,1.46,3.34-1.8,13.5-3.63,11.34-5.82,13.82-4.5,16.88,2.28,5.28,12.13,5.61,12.6,5.62,13.38.31,23.94-12.45,30.6-20.93,9.75-12.41,58.67-74.63,47.48-84.98-3.25-3-11.53-1.61-15.87,2.16-3.3,2.87-2.86,5.84-5.77,12.26-3.76,8.31-10.59,16.81-12.98,15.87-2.62-1.03-1.4-13.98,3.61-25.24,5.89-13.24,12.74-14.54,18.75-23.8,11.63-17.92,8.17-47.27-4.33-64.91-5.46-7.71-7.06-5.3-31.73-30.29-8.8-8.92-15.84-16.56-13.7-23.08,1.47-4.5,6.64-6.43,7.21-6.64,9.12-3.26,15.99,6,29.96,11.45,10.53,4.1,21.72,3.18,44.1,1.35,26.72-2.2,30.24-7.4,31.31-9.76,1.23-2.72,1.46-6.64-.34-8.08-2.79-2.24-8.79,2.81-16.16,6.06-13.71,6.06-27.26,3.75-41.41,1.35-9.26-1.58-18.53-3.15-28.95-9.09-9.99-5.69-17.61-13.43-31.98-15.15-1.74-.21-2.99-.26-5.05-.34-1.8-.07-16.93-.56-30.3,3.7-11.23,3.58-20.84,13.27-40.06,32.65-5.58,5.63-11.05,11.56-12.79,20.53-.37,1.92-2.32,12,2.69,15.48,4.67,3.24,12.6-1.14,14.81-2.36,9.47-5.23,8.75-11.13,20.87-24.24,4.14-4.48,12.53-12.77,20.87-12.46.54.02,3.3.12,3.7,1.35.55,1.66-3.93,3.27-6.73,8.08-.54.93-3.49,5.99-1.68,9.76,2.22,4.63,10.38,4.69,13.13,4.71,8.46.07,11.08-3.45,16.49-3.7,9.27-.43,16.8,9.18,21.88,15.82,20.5,26.83,20.27,59.45,20.2,63.29-.19,9.67-.77,27.81-11.78,47.13-19.47,34.16-54.97,42.96-59.92,44.1-6.41,1.48-44.86,10.35-75.07-14.81-24.43-20.34-27.54-49.67-28.28-56.55-.98-9.2-3.92-36.9,10.1-56.55,1.9-2.66,7.73-10.26,9.76-21.54.3-1.67,2.66-14.8-2.36-17.5-3.66-1.97-9.65,2.44-13.8,5.72-20.95,16.55-31.32,32.82-49.48,50.49-9.19,8.94-23.51,21.29-30.64,17.83Z"/>
    <path class="cls-9" d="m341.23,221.13c-23.4,14.57-21.04,16.13-34.11,22.51-6.32,3.09-10.42,4.46-15.01,9.21-5.42,5.61-4.19,8.35-11.26,15.69-2.57,2.67-4.56,4.97-8.53,9.55-3.04,3.51-4.25,5.03-3.75,6.14.76,1.68,5.13,1.7,8.53.68,4.48-1.34,5.41-3.94,10.92-8.53,5.43-4.52,5.59-2.88,11.94-7.85,6.33-4.96,7.22-7.41,11.6-8.53,1.09-.28,6.63-1.7,9.21,1.02,3.39,3.58-2.55,9.87,0,17.4,2.01,5.92,8.41,10.04,13.99,10.92,6.3.99,11.89-2.09,21.15-9.55,15.16-12.22,19.43-19.46,26.95-26.27,12.07-10.94,34.86-22.89,54.92-18.08,12,2.88,12.54,9.24,43.66,24.56,5.71,2.81,15.57,7.46,22.17,3.41.38-.23,4.15-2.61,4.09-5.8-.07-3.88-5.76-6.58-8.87-8.19-14.16-7.31-11.62-10.87-25.58-18.76-8.09-4.57-21.65-12.23-37.86-11.94-23.92.44-48.89,18.11-66.18,30.36-.15.1-3.5,2.48-8.53,4.43-5.18,2.02-10.23,3.98-13.64,1.71-3.4-2.26-4.16-8.03-3.07-12.28,1.24-4.81,5.62-8.27,14.33-15.01,7.07-5.47,10.98-7.53,11.94-12.28.15-.76.96-4.74-1.02-6.48-2-1.76-6.82-1.23-27.97,11.94Z"/>
    <path class="cls-4" d="m388.58,254.03c-.67.07-1.34.13-2.02.2,0-10.97.02-21.93.03-32.9l2-1.47c0,11.39,0,22.78-.01,34.17Z"/>
    <path class="cls-4" d="m460.42,504.08c-1.01.21-2.02.42-3.03.63-20.03-11.24-40.06-22.48-60.08-33.71.29-.59.58-1.19.87-1.78,20.75,11.62,41.49,23.24,62.24,34.86Z"/>
    <path class="cls-4" d="m513.66,288.88h-2c-.01-5.74-.03-11.48-.04-17.22.66-.02,1.32-.03,1.98-.05.02,5.76.04,11.51.06,17.27Z"/>
    <rect class="cls-17" x="513.71" y="271.54" width="9.1" height="17.35"/>
    <g>
      <path class="cls-18" d="m296.54,447.03v60.07c.06.98.07,2.43-.21,4.15-.27,1.65-1.07,5.07-6.11,11.52-2.1,2.69-3.64,4.51-5.31,6.18-1.9,1.89-3.46,3.12-3.66,3.28-2.94,2.39-12.99,17.93-36.84,59.57-4.24-3.76-8.48-7.51-12.72-11.27,1.24-11.26,2.48-22.53,3.72-33.79l-113.72,50.64c1.46,4.16,2.92,8.31,4.38,12.47-7.9-2.83-17.94-8.09-22.63-18.14-1.83-3.92-2.47-7.29-2.47-9.07v-118.79c-.14-2.4-.02-6.42,1.88-10.78,3.04-6.98,9.39-10.74,13.96-12.98,12.05-5.91,69.49-29.07,148.6-59.12,2.92-1.11,9.74-4.36,18.46-3.38,11.6,1.31,20.27,9.15,25.73,15.6-4.36,17.95-8.72,35.9-13.08,53.85Z"/>
      <path class="cls-3" d="m310.42,459.36v60.07c.06.98.07,2.43-.21,4.15-.27,1.65-1.07,5.07-6.11,11.52-2,2.56-4.93,5.93-8.96,9.45-16.57,15.12-33.15,30.23-49.72,45.35l3.89-30.84-113.72,50.64c-7.38,1.78-14.63-.49-18.25-5.67-2.41-3.45-2.55-7.23-2.47-9.07v-118.79c-.14-2.4-.02-6.42,1.88-10.78,3.15-7.21,9.8-10.94,13.96-12.98,12.06-5.9,73.09-31.13,157.2-64.22,9.75-2.64,18.52-.46,21.72,4.98.67,1.13,1.45,3.02,1.38,5.87-.19,20.11-.39,40.21-.58,60.32Z"/>
      <g>
        <path class="cls-4" d="m164.44,510.74c-.4.72-4.23,7.87-.84,13.17.37.58,1.59,2.5,3.88,3.21,4.01,1.24,8.03-2.26,9.12-3.21,5.57-4.86,8.67-14.7,4.65-18.89-2.06-2.14-5.27-2.07-6.17-2.05-6.42.15-10.01,6.63-10.64,7.77Z"/>
        <path class="cls-4" d="m206.78,496.14c-.4.72-4.23,7.87-.84,13.17.37.58,1.59,2.5,3.88,3.21,4.01,1.24,8.03-2.26,9.12-3.21,5.57-4.86,8.67-14.7,4.65-18.89-2.06-2.14-5.27-2.07-6.17-2.05-6.42.15-10.01,6.63-10.64,7.77Z"/>
        <path class="cls-4" d="m249.7,480.96c-.4.72-4.23,7.87-.84,13.17.37.58,1.59,2.5,3.88,3.21,4.01,1.24,8.03-2.26,9.12-3.21,5.57-4.86,8.67-14.7,4.65-18.89-2.06-2.14-5.27-2.07-6.17-2.05-6.42.15-10.01,6.63-10.64,7.77Z"/>
      </g>
    </g>
    <g>
      <path class="cls-18" d="m453.86,307.68v60.07c.06.98.07,2.43-.21,4.15-.27,1.65-1.07,5.07-6.11,11.52-2.1,2.69-3.64,4.51-5.31,6.18-1.9,1.89-3.46,3.12-3.66,3.28-2.94,2.39-12.99,17.93-36.84,59.57-4.24-3.76-8.48-7.51-12.72-11.27,1.24-11.26,2.48-22.53,3.72-33.79l-113.72,50.64c1.46,4.16,2.92,8.31,4.38,12.47-7.9-2.83-17.94-8.09-22.63-18.14-1.83-3.92-2.47-7.29-2.47-9.07v-118.79c-.14-2.4-.02-6.42,1.88-10.78,3.04-6.98,9.39-10.74,13.96-12.98,12.05-5.91,69.49-29.07,148.6-59.12,2.92-1.11,9.74-4.36,18.46-3.38,11.6,1.31,20.27,9.15,25.73,15.6-4.36,17.95-8.72,35.9-13.08,53.85Z"/>
      <path class="cls-3" d="m467.73,320.01v60.07c.06.98.07,2.43-.21,4.15-.27,1.65-1.07,5.07-6.11,11.52-2,2.56-4.93,5.93-8.96,9.45-16.57,15.12-33.15,30.23-49.72,45.35l3.89-30.84-113.72,50.64c-7.38,1.78-14.63-.49-18.25-5.67-2.41-3.45-2.55-7.23-2.47-9.07v-118.79c-.14-2.4-.02-6.42,1.88-10.78,3.15-7.21,9.8-10.94,13.96-12.98,12.06-5.9,73.09-31.13,157.2-64.22,9.75-2.64,18.52-.46,21.72,4.98.67,1.13,1.45,3.02,1.38,5.87-.19,20.11-.39,40.21-.58,60.32Z"/>
      <g>
        <path class="cls-4" d="m321.76,371.39c-.4.72-4.23,7.87-.84,13.17.37.58,1.59,2.5,3.88,3.21,4.01,1.24,8.03-2.26,9.12-3.21,5.57-4.86,8.67-14.7,4.65-18.89-2.06-2.14-5.27-2.07-6.17-2.05-6.42.15-10.01,6.63-10.64,7.77Z"/>
        <path class="cls-4" d="m364.09,356.79c-.4.72-4.23,7.87-.84,13.17.37.58,1.59,2.5,3.88,3.21,4.01,1.24,8.03-2.26,9.12-3.21,5.57-4.86,8.67-14.7,4.65-18.89-2.06-2.14-5.27-2.07-6.17-2.05-6.42.15-10.01,6.63-10.64,7.77Z"/>
        <path class="cls-4" d="m407.01,341.61c-.4.72-4.23,7.87-.84,13.17.37.58,1.59,2.5,3.88,3.21,4.01,1.24,8.03-2.26,9.12-3.21,5.57-4.86,8.67-14.7,4.65-18.89-2.06-2.14-5.27-2.07-6.17-2.05-6.42.15-10.01,6.63-10.64,7.77Z"/>
      </g>
    </g>
    <path class="cls-11" d="m396.69,475.53c-14.37,2.16-43.18,3.4-66.92-16.37-24.43-20.34-27.54-49.67-28.28-56.55-.98-9.2-3.92-36.9,10.1-56.55,1.9-2.66,7.73-10.26,9.76-21.54.3-1.67,2.66-14.8-2.36-17.5-3.66-1.97-9.65,2.44-13.8,5.72-20.95,16.55-31.32,32.82-49.48,50.49-9.19,8.94-23.51,21.29-30.64,17.83-.57-.27-3.43-1.66-4.05-4.27-.61-2.58,1.47-4.23,3.6-9.45,1.64-4.02,2.45-6.02,2.02-8.1-1.08-5.22-8.59-8.25-13.73-9-2-.29-4.96-.43-9.45.67-6.99,1.73-9.73,4.51-23.85,14.63-6.93,4.97-10.25,7.15-13.95,11.93-4.94,6.38-4.58,9.67-4.27,11.03.56,2.52,2.45,5.27,5.18,6.3,2.37.9,5.55,0,11.93-1.8,3.05-.86,4.83-1.54,7.2-.9.74.2,2.85.77,4.05,2.47,2.41,3.43-1.68,7.39-.9,13.28.68,5.17,4.7,8.58,6.53,10.12,7.22,6.11,16.45,5.17,18.23,4.95,9.34-1.16,17.3-7.63,24.53-13.5,1.68-1.37,4.87-3.16,11.25-6.75,1.56-.88,3.74-2.06,6.53-1.8.48.05,3.46.33,4.95,2.25,2.14,2.76.13,7.56-1.58,11.48-7.5,17.29-8.3,16.97-9.68,21.38-3.12,10.01-2.55,22.98,3.83,27.9.72.56,3.6,2.78,7.2,2.25,2.06-.3,4.67-1.55,5.63-3.82.33-.77.32-1.33-.22-5.85-.59-4.91-.76-5.75-.22-6.98.71-1.63,2.38-3.31,4.05-3.15.66.06,1.52.44,2.47,1.8,2.76,3.92,1.85,9.66,1.8,12.15-.11,5.09,3.12,8.91,13.5,18.9,15.14,14.57,22.71,21.86,30.83,27.45,18.5,12.74,27.83,13.91,30.6,14.18,3.51.34,14.9,1.45,18-4.27,1.97-3.63.03-8.97-2.02-11.93-2.61-3.76-7.89-7.23-10.58-9-2.23-1.47-4.01-2.43-4.27-4.27-.29-2.04,1.42-4.1,2.92-5.17,3.66-2.6,8.59-1.09,13.05,0,4.75,1.16,14.23,3.48,22.5,3.15,7.69-.31,8.94-2.69,24.08-4.5.12-.01.23-.03.35-.04-5.54-2.89-10.97-6.03-16.38-9.21Z"/>
    <path class="cls-4" d="m87.14,243.95c-4.81-15.32-9.63-30.63-14.44-45.95,7.13-7.86,14.26-15.72,21.4-23.58.08,1.03.17,2.05.25,3.08-8.83,9.59-15.21,16.5-16.49,17.86-.07.07-.26.28-.47.6-.14.21-.94,2.7-.52,4.72.53,2.53,6.88,23.07,15.94,51.04l-5.67-7.78Z"/>
    <path class="cls-4" d="m218.66,89.2c3.35,10.12,6.64,20.42,9.88,30.9,1.8,5.84,3.56,11.64,5.27,17.4.26.92.53,2.34.27,3.99-.12.72-.21,2.55-1.92,4.28-6.57,6.66-13.14,13.32-19.71,19.97l.37-2.86c5.51-5.8,11.02-11.59,16.53-17.39.69-.69,2.14-2.34,2.23-4.67.02-.41,0-.79-.06-1.15-4.52-15.01-9.04-30.02-13.55-45.03.23-1.82.46-3.64.69-5.45Z"/>
    <path class="cls-17" d="m240.75,145.1c-.51.16-1.02.32-1.53.47-2.05.61-4.1,1.22-6.15,1.83.68-.82,1.35-1.65,2.03-2.47.42-.67,1.02-1.85,1.23-3.42.14-1.06.06-1.96-.05-2.61-2.77-9.86-5.54-19.72-8.32-29.58,1.33-.41,2.66-.83,4-1.24,3.11,10.01,6.21,20.02,9.32,30.03.1.48.17,1,.21,1.56.16,2.22-.28,4.09-.75,5.43Z"/>
    <path class="cls-4" d="m684.14,251.48c-23.18-20.33-46.36-40.66-69.54-60.99-.29.21-.66.53-1.01.99-.56.76-.77,1.52-.85,1.96,22.63,20.12,45.25,40.24,67.88,60.36,1.17-.77,2.34-1.54,3.51-2.31Z"/>
    <path class="cls-17" d="m675.79,253.94c-21.12-18.67-42.25-37.33-63.37-56-.33.23-.69.55-1.01.99-1.21,1.68-.76,3.71-.65,4.16,20.21,17.92,40.43,35.84,60.64,53.77,1.46-.97,2.92-1.95,4.39-2.92Z"/>
    <path class="cls-4" d="m603.62,128.46c1.57-8.28,3.13-16.55,4.7-24.83-.48.21-1.1.43-1.84.57-.68.13-1.29.17-1.78.16-1.48,7.2-2.96,14.4-4.44,21.6.29.44.81,1.09,1.63,1.66.65.45,1.27.69,1.72.83Z"/>
    <path class="cls-17" d="m597.72,121.83c1.02-5.04,2.05-10.07,3.07-15.11-.54-.73-1.34-1.63-2.48-2.44-.48-.34-.94-.61-1.37-.82-1.36,6.84-2.73,13.68-4.09,20.51,1.62-.71,3.25-1.43,4.87-2.14Z"/>
    <path class="cls-4" d="m696.19,156.39c-23.18-20.33-46.36-40.66-69.54-60.99-.29.21-.66.53-1.01.99-.56.76-.77,1.52-.85,1.96,22.9,20.4,45.79,40.8,68.69,61.21.9-1.05,1.8-2.1,2.71-3.16Z"/>
  </g>
</svg>