<?xml version="1.0" encoding="UTF-8"?>
<svg id="_レイヤー_2" data-name="レイヤー 2" xmlns="http://www.w3.org/2000/svg" xmlns:xlink="http://www.w3.org/1999/xlink" viewBox="0 0 850.12 549.81">
  <defs>
    <style>
      .cls-1 {
        fill: url(#_名称未設定グラデーション_13-3);
      }

      .cls-1, .cls-2, .cls-3, .cls-4, .cls-5, .cls-6, .cls-7, .cls-8, .cls-9, .cls-10, .cls-11, .cls-12, .cls-13, .cls-14, .cls-15, .cls-16, .cls-17, .cls-18, .cls-19 {
        stroke-width: 0px;
      }

      .cls-2 {
        fill: url(#_名称未設定グラデーション_13-2);
      }

      .cls-3 {
        fill: url(#_名称未設定グラデーション_13);
      }

      .cls-4 {
        fill: url(#_名称未設定グラデーション_11);
      }

      .cls-5 {
        fill: url(#_名称未設定グラデーション_7-2);
      }

      .cls-20 {
        fill: none;
        stroke-linecap: round;
      }

      .cls-20, .cls-21, .cls-22 {
        stroke-miterlimit: 10;
      }

      .cls-20, .cls-22 {
        stroke: #fff;
      }

      .cls-21 {
        stroke: #feefda;
      }

      .cls-21, .cls-16 {
        fill: #fff;
      }

      .cls-22, .cls-9 {
        fill: #313333;
      }

      .cls-6 {
        fill: url(#_名称未設定グラデーション_7);
      }

      .cls-7 {
        fill: url(#_名称未設定グラデーション_9);
      }

      .cls-8 {
        fill: url(#_名称未設定グラデーション_3);
      }

      .cls-10 {
        fill: #7ab8e0;
      }

      .cls-11 {
        fill: #5498c5;
      }

      .cls-12 {
        fill: #977328;
      }

      .cls-13 {
        fill: #fdf0ce;
      }

      .cls-14 {
        fill: #f2c09d;
      }

      .cls-15 {
        fill: #f3cb45;
      }

      .cls-17 {
        fill: #e6a2a8;
      }

      .cls-18 {
        fill: #f3c8a2;
      }

      .cls-19 {
        fill: #f5d679;
      }
    </style>
    <linearGradient id="_名称未設定グラデーション_11" data-name="名称未設定グラデーション 11" x1="1616.93" y1="1482.74" x2="1880.21" y2="1482.74" gradientTransform="translate(-1084.61 -1233.33) rotate(-1.44)" gradientUnits="userSpaceOnUse">
      <stop offset=".32" stop-color="#f5d679"/>
      <stop offset=".8" stop-color="#e8b6bc"/>
    </linearGradient>
    <linearGradient id="_名称未設定グラデーション_13" data-name="名称未設定グラデーション 13" x1="1475.11" y1="1529.64" x2="1673.1" y2="1529.64" gradientTransform="translate(-1084.61 -1233.33) rotate(-1.44)" gradientUnits="userSpaceOnUse">
      <stop offset="0" stop-color="#84b9df"/>
      <stop offset="1" stop-color="#e8b6bc"/>
    </linearGradient>
    <linearGradient id="_名称未設定グラデーション_7" data-name="名称未設定グラデーション 7" x1="1583.28" y1="1367.22" x2="1846.13" y2="1367.22" gradientTransform="translate(-1084.61 -1233.33) rotate(-1.44)" gradientUnits="userSpaceOnUse">
      <stop offset=".26" stop-color="#84b9df"/>
      <stop offset=".8" stop-color="#e8b6bc"/>
    </linearGradient>
    <linearGradient id="_名称未設定グラデーション_13-2" data-name="名称未設定グラデーション 13" x1="1631.09" y1="1641.02" x2="1850.65" y2="1641.02" xlink:href="#_名称未設定グラデーション_13"/>
    <linearGradient id="_名称未設定グラデーション_7-2" data-name="名称未設定グラデーション 7" x1="1427.01" y1="1320.97" x2="1475.19" y2="1320.97" xlink:href="#_名称未設定グラデーション_7"/>
    <linearGradient id="_名称未設定グラデーション_9" data-name="名称未設定グラデーション 9" x1="1170.79" y1="1450.55" x2="1414.29" y2="1450.55" gradientTransform="translate(-1084.61 -1233.33) rotate(-1.44)" gradientUnits="userSpaceOnUse">
      <stop offset="0" stop-color="#f5d679"/>
      <stop offset=".8" stop-color="#e8b6bc"/>
    </linearGradient>
    <linearGradient id="_名称未設定グラデーション_3" data-name="名称未設定グラデーション 3" x1="1048.08" y1="1416.07" x2="1420.35" y2="1416.07" gradientTransform="translate(-1084.61 -1233.33) rotate(-1.44)" gradientUnits="userSpaceOnUse">
      <stop offset=".02" stop-color="#e8b6bc"/>
      <stop offset=".98" stop-color="#84b9df"/>
    </linearGradient>
    <linearGradient id="_名称未設定グラデーション_13-3" data-name="名称未設定グラデーション 13" x1="1103.04" y1="1642.93" x2="1469.87" y2="1642.93" xlink:href="#_名称未設定グラデーション_13"/>
  </defs>
  <g id="_レイヤー_1-2" data-name="レイヤー 1">
    <path class="cls-4" d="m750.85,178.96c-26.66-11.92-28.5-12.62-30.91-13.38-4.49-1.42-16.74-5.18-31.64-4.03-13.63,1.05-14.91,5.07-39.61,11.94-15.28,4.25-22.92,6.37-30.41,6.56-7.1.18-24.21-.36-38.26,1.61-2.21.31-6.93,1.04-9.54,4.75-1.44,2.04-2.31,5.1-1.41,7.76.55,1.66,2.43,5.05,11.12,7.12,24.66,5.88,71.12-.18,71.12-.18,27.05-3.53,15.27,1.49,72.71-1.19,0,0,22.23-1.04,50.8,10.63,3.01,1.23,8.4,3.69,8.55,7.19.12,2.93-3.47,5.36-6.25,7.24-8.03,5.43-13.43,3.97-15.25,7.79-1.54,3.23.59,7.92,3.16,10.54,3.69,3.76,9.4,3.67,20.68,3.34,26.81-.79,28.17-1,30.84-2.39,1.94-1.01,13.78-7.15,15.92-19.71,1.36-8.01-1.93-14.46-2.99-16.34-5.37-9.57-15.54-12.89-24.86-15.79-16.84-5.24-22.41-.95-40.09-7.36-.59-.21-.31-.12-13.67-6.09Z"/>
    <path class="cls-3" d="m516.49,241.23c-1.54,1.86-.49,5.51.77,7.51,3.48,5.5,13.02,5.33,16.92,5.36,1.29.01,14.73,2.75,41.59,8.21,41.07,8.36,47.79,19.27,49.48,22.49.76,1.46,3.42,6.52,1.4,9.52-2.23,3.3-9.08,2.58-16.47.99-21.33-4.57-29.3-12.48-50.29-20.44-2.44-.93-11.73-3.55-30.32-8.79-18.48-5.21-22.68-6.13-28.8-5.93-4.52.15-11.54,2.24-25.6,6.43-2.89.86-20.59,6.16-34.86,6.38-2.58.04-7.27-.06-9.92-3.22-.27-.32-2.18-2.61-1.57-4.88.81-2.99,5.39-3.72,10.86-5.48,9.51-3.06,8.66-5.02,15.45-7.05,12.98-3.88,17.68,2.79,26-1.81,5.76-3.19,10.36-10.18,8.88-15.27-1.39-4.79-8.05-7.54-8.88-7.88-4.54-1.88-7.61-1-9.35-3.53-1.16-1.68-1.35-4.33-.44-6.07,2.66-5.07,14.9-2.61,29.77-1.62,19.02,1.27,16.1-1.61,35.01-.59,16.86.91,43.02,2.33,49.01,15.55.39.86,2.18,4.8.48,7.51-1.98,3.16-7.6,2.7-18.77,1.63-15.27-1.46-30.7.36-46.02-.29-.88-.04-3.14-.14-4.31,1.27Z"/>
    <path class="cls-6" d="m599.57,37.61c-15.76-.89,4.25.26-23.08-.59-25.11-.77-43.23-1.77-45.01,3.52-.16.47-.41,1.66.05,2.84,1.1,2.82,5.5,3.53,8.08,3.92,9.94,1.5,14.9,2.25,17.66,2.03,10.36-.82,30.08,1.81,69.51,7.06,23.87,3.18,35.68,6.08,47.9,12,5.76,2.79,14.43,7.61,21.06,17.08,3.21,4.58,8.41,12,6.56,20.2-1.77,7.82-9.24,13.19-11.19,14.59-4.59,3.3-8.02,3.85-12.43,8.84-3.66,4.14-3.71,6.47-3.38,7.79.34,1.33,1.29,2.48,2.84,3.51,11.03,7.25,27.11,5.65,27.11,5.65,19.15-1.91,34.4-8.19,41.81-11.51,21.55-9.64,35.14-15.71,42.98-30.52,1.91-3.61,8.1-15.29,3.74-26.51-2.88-7.42-9.16-11.49-13-13.71-25.13-14.48-65.92-18.27-72.29-18.82-33.77-2.92-50.52-4.09-108.91-7.37Z"/>
    <path class="cls-2" d="m775.33,298.09c-5.66-.79-10.03-1.79-11.1-2.06-4.54-1.15-8.82-4.01-19.12-14.92-13.97-14.79-14.41-18.34-21.28-20.89-1.68-.62-11.86-4.2-17.38,1.11-2.25,2.16-4.13,6.19-2.78,9.11,1.98,4.28,9.14,2.29,17.56,5.92,9.13,3.94,13.83,11.95,15.43,14.67,7.46,12.71,4.36,26.59,2.25,36.09-1.53,6.86-4.67,20.96-15.91,32.87-5.79,6.14-14.73,12.76-21.15,23.96-2.08,3.62-4.02,7.95-2.43,9.77.84.96,2.42.93,3.71.91,4.29-.07,7.52-2.33,8.3-2.89,14.72-10.57,22.18-23.32,22.18-23.32,4.92-8.41,6.86-14.73,14.44-24.8,1.94-2.58,4.84-6.2,8.88-6.25,3.23-.04,6.45,2.2,7.82,4.82,2.91,5.57-2.06,13.71-7.5,21.28-16.44,22.85-34.86,37.17-37.84,39.45-8.55,6.55-21.47,16.33-40.53,25.46-20.28,9.7-30.92,14.8-46.77,16.91,0,0-17.38,2.32-33.89,10.23-3.42,1.64-8.54,4.36-8.5,7.91.03,3.13,4.07,5.35,4.49,5.58,6.55,3.51,15.07-.8,23.31-4.94,21.23-10.67,31.84-16,33.39-16.57,21.08-7.76,25.07,4.21,42.79-2.42,16.6-6.21,14.75-17.34,45.17-40.63,6.93-5.3,11-8.42,17.44-12.15,18.65-10.82,27.56-9.65,36.66-19.67,6.01-6.62,8.04-13.65,9.87-20,2.01-6.95,7.19-24.91-2.34-39.77-1.03-1.61-8.14-12.69-17.76-13.95-1.29-.17-3.35-.26-7.39-.82Z"/>
    <path class="cls-5" d="m409.53,44.35c-15.77.81-19.84-2.46-28.74,1.39-3.92,1.69-5.23,3.23-5.53,4.8-.48,2.45,1.47,5.04,3.32,6.4,3.09,2.27,6.05,1.23,15.64.11,7.39-.87,11.73-.96,20.72-2.68,5.51-1.05,8.11-1.82,8.4-3.37.4-2.18-4.04-4.65-4.45-4.88-3.82-2.08-7.64-1.85-9.36-1.76Z"/>
    <path class="cls-14" d="m166.16,15.76c2.84-.76,5.5,1.11,7.9,2.37,2.68,1.4,5.39,2.74,8.22,3.83,4.84,1.87,9.46,2.03,13.83-1.06,4.04-2.86,7.33-8.01,12.37-9.19,3.49-.81,4.78,1.02,7.16,3.14,1.85,1.65,3.85,2.91,6.25,3.63,4.33,1.3,9.16.75,13.25-1.08,4.06-1.82,5.49-5.22,8.74-7.81,3.99-3.19,8.08-.74,11.4,1.99,3.79,3.12,8.31,4.44,13.2,3.83,5.12-.64,4.97-8.74-.2-8.09-2.72.34-5.12.12-7.4-1.59-1.68-1.26-3-2.83-4.88-3.85-4-2.17-9.04-2.45-13.3-.85-4.05,1.52-5.58,4.71-8.54,7.47-3.74,3.48-9.73,3.48-13.4.05-3.93-3.68-7.77-5.96-13.37-4.85-5.03,1-8.83,4.28-12.51,7.64-2.05,1.87-4.08,4.33-7.11,3.92s-5.89-2.18-8.43-3.48c-5.05-2.59-9.69-5.31-15.53-3.75-5.03,1.35-2.69,9.1,2.35,7.75h0Z"/>
    <path class="cls-7" d="m231.75,135.95c-3.1,6.15-6.54,12.12-9.74,18.21-6.2,11.81-16.76,11.9-45.47,26.4-11.21,5.66-28.53,15.2-44.35,32.2-6.02,6.47-9.22,11.22-8.81,16.73.82,10.85,15.24,19.2,27.22,20.2,5.61.47,16.54-.19,19.27-6.31,1.96-4.41-.84-10.54-1.77-12.58-2.19-4.79-4.32-5.34-5.06-8.13-1.78-6.74,7.65-14.83,11.21-17.76,25.73-21.2,48.33-28.41,48.33-28.41,20.1-6.41,52.5-16.74,86.61-12.38,14.57,1.86,22.47.11,38.28-3.39,4.18-.93,10.57-2.57,14.36-8.13.25-.37,4.79-7.25,2.08-13.65-2.09-4.95-7.46-7.11-11.87-8.44-19.23-5.82-30.25,1.04-54.4-.57-18.64-1.24-27.96-1.86-38.99-5.82-5.52-1.98-11.9-4.87-17.53-1.99-3.7,1.89-5.02,5.22-9.36,13.83Z"/>
    <path class="cls-18" d="m370.08,225.79c-14.01,3.01-26.45,6.87-51.19,18.33-5.89,2.73-11.82,5.58-11.7,9.21.11,3.5,5.8,5.89,6.22,6.06,9.93,4.04,16.92-5.9,36.68-12.76,17.86-6.21,28.63-3.81,34.07-12.88.44-.74,3.09-5.16,1.43-7.7-1.87-2.86-8.2-1.83-15.51-.26Z"/>
    <path class="cls-10" d="m129.99,58.7c-3.89,1.95-7.23,4.43-18.13,16.11-4.58,4.91-8.59,9.39-7.98,10.09.55.63,3.99-2.97,9.8-3.54,1.92-.19,6.37-.63,9.11,1.83,5.05,4.53-.92,14.26,4.18,18.84,2.38,2.14,6.01,2.12,8.27,1.44,2.54-.76,4.91-2.82,8.38-10.92,4.69-10.98,8.64-20.2,4.63-28.95-.75-1.63-2.65-5.79-6.77-7.24-3.92-1.38-7.69.45-11.47,2.35Z"/>
    <path class="cls-8" d="m57.45,143.79c-2.52,3.59-18.6,26.54-11.42,47.88,2.92,8.67,9.65,17.01,18.68,28.18,4.78,5.92,9.82,11.37,10.21,19.65.08,1.73.37,7.95-3.58,12.23-5.3,5.75-14.94,4.41-21.28,3.45-8.22-1.25-32.5-4.95-44.4-27.53-10.77-20.44-3.12-40.64-1.61-44.64,3.79-10.01,9.64-16.61,17.36-24.23,26.61-26.27,52.56-42.04,55.23-43.64,7.66-4.59,40.78-24.08,91.74-40.19,17.98-5.68,31.33-8.78,44.38-11.8,80.03-18.55,102.77-9.39,126.33-16.29.62-.18,11.12-3.27,21.86.42,5.57,1.91,5.89,3.82,5.93,4.22.4,3.65-8.78,7.35-10.48,8.03-14.44,5.82-29.21,1.76-37.88-.02-3.38-.7-50.55-9.85-83.26,10.35-11.76,7.26-12.28,12.52-23.87,16.14-12.55,3.91-27.58,2.63-40.75,1.51-6.34-.54-7.44-.92-10.71-1.19-27.93-2.3-53.39,16.6-80.17,36.98-16.61,12.64-20.71,18.19-22.31,20.47Z"/>
    <circle class="cls-10" cx="844.89" cy="346.64" r="5.22"/>
    <circle class="cls-10" cx="679.92" cy="260.83" r="5.22"/>
    <g>
      <polygon class="cls-9" points="449.96 80.51 375.35 140.01 452.76 176.77 532.05 130.39 449.96 80.51"/>
      <path class="cls-9" d="m383.03,98.23l-87.84,26.42c-1.59,1.01-2.42,2.86-2.08,4.64.38,2.01,2.16,3.54,4.31,3.64,29.28-9.02,58.56-18.03,87.84-27.05,1.5-1.19,2.06-3.19,1.41-4.91-.57-1.5-1.99-2.57-3.64-2.73Z"/>
      <path class="cls-17" d="m357.24,143.27c-4.3-7.48-8.6-14.96-12.91-22.44-1.48.31-2.95.62-4.43.92,1.9,9.06,3.8,18.12,5.69,27.17,3.74-2.19,7.53-4.19,11.64-5.66Z"/>
      <g>
        <path class="cls-17" d="m490.01,170.28c2.95-2.19,4.59-1.98,5.39-1.67,3.61,1.38,5.04,10.54,1.04,16.3-2.45,3.53-6.23,4.76-7.84,5.18.16-4.08.33-8.15.49-12.23.43-.74,1.1-2.11,1.27-3.95.15-1.57-.12-2.84-.35-3.62Z"/>
        <path class="cls-17" d="m416.17,170.28c-2.95-2.19-4.59-1.98-5.39-1.67-3.61,1.38-5.04,10.54-1.04,16.3,2.45,3.53,6.23,4.76,7.84,5.18-.16-4.08-.33-8.15-.49-12.23-.43-.74-1.1-2.11-1.27-3.95-.15-1.57.12-2.84.35-3.62Z"/>
        <path class="cls-17" d="m415.71,166.25c-2.89,14.45.21,34.12,13.69,46.24,3.08,2.77,9.31,8.37,19.12,9.41,1.16.12,4.45.4,8.54-.28,11.3-1.88,18.46-9.38,21.39-12.45,12.71-13.3,15.36-34.02,8.58-50.74-2.75-6.78-8.55-21.07-24.42-25.15-3.09-.79-14.12-3.72-25.28,2.52-13.5,7.56-15.95,22.11-16.23,23.95-1.33.39-2.66.77-4,1.16-.39,1.21-.94,3.05-1.4,5.33Z"/>
        <path class="cls-15" d="m410.03,141.75c-1.23.56-3.29,1.31-5.95,1.44-2.68.13-4.82-.41-6.1-.85.67.37,1.52.79,2.55,1.18.97.37,2.05.71,3.25.95,6.05,1.23,11.05-.65,13.2-1.61-2.84,1.65-6.8,3.49-11.76,4.56-10.56,2.27-19.33-.36-23.4-1.89,1.61,3.08,5.51,9.42,13,12.69.1.04.22.1.37.16,5.41,2.19,9.16,1.37,15.69,1.48,1.64.03,4.06.12,7.02.46-4.6,1.09-9.21,2.18-13.81,3.26,5.49.74,11.96,1.07,19.15.38,2.19-.21,4.29-.5,6.27-.85-2.65,1.09-5.3,2.19-7.95,3.28,6,1.18,14.6,2.16,24.78.92,5.18-.63,8.82-1.6,9.75-1.85,5.32-1.41,14-4.51,23.37-12.05,2.03,2.44,5.49,7.26,7.11,14.27,1.24,5.36.92,9.92.49,12.8.72-.53,2.07-1.67,2.96-3.61,1.29-2.82.73-5.41.52-6.22.64-.46,1.21-.76,1.63-.95.98-.45,2.25-1.02,3.58-.62.16.05.28.1.36.13.45-1.34,4.98-15.75-3.59-25.86-2.52-2.98-5.48-4.76-7.91-5.84-4.57-3.69-8.75-5.94-11.68-7.3-17.69-8.2-38.66-6.63-54.27,1.95-3.15,1.73-5.52,3.43-6.88,4.48-.57,1.7-1.14,3.4-1.71,5.1Z"/>
      </g>
      <path class="cls-17" d="m420.66,513.5c-1.79,6.76-3.58,13.53-5.36,20.29-1.38.02-2.77.04-4.15.06-1.7-6.8-3.4-13.6-5.09-20.41,4.87.02,9.74.04,14.61.06Z"/>
      <path class="cls-9" d="m389.03,531.03c-5.5-.18-14.43-.47-17.92,5.19-1.65,2.67-2.11,6.72-.32,9.54,1.63,2.57,4.82,3.61,16.49,3.88,17.47.4,27,.52,29.2-4.56.49-1.14.84-3.07-.48-6.21,1.12-3.59,2.24-7.18,3.36-10.78-4.16-.1-8.33-.21-12.49-.31.63,2.98,1.25,5.96,1.88,8.93-8.41-4.72-15.71-5.55-19.71-5.68Z"/>
      <path class="cls-17" d="m459.88,232.32c-2.59.57-5.17,1.13-7.75,1.7-2.63-.57-5.25-1.13-7.88-1.7v-14.34h15.63v14.34Z"/>
      <path class="cls-9" d="m399.53,420.45c-1.23,4.14-2.37,8.44-3.39,12.93-9.09,39.96-3.46,69.98-.85,81.13,8.99,2.97,17.97,5.95,26.96,8.92,9.91-20.26,20.77-45.14,30.83-74.23,3.26-9.42,6.17-18.54,8.79-27.34-20.78-.68-41.55-1.37-62.34-1.42Z"/>
      <path class="cls-17" d="m496.36,513.5c1.79,6.76,3.58,13.53,5.36,20.29,1.38.02,2.77.04,4.15.06,1.7-6.8,3.4-13.6,5.09-20.41-4.87.02-9.74.04-14.61.06Z"/>
      <path class="cls-9" d="m527.99,531.03c5.5-.18,14.43-.47,17.92,5.19,1.65,2.67,2.11,6.72.32,9.54-1.63,2.57-4.82,3.61-16.49,3.88-17.47.4-27,.52-29.2-4.56-.49-1.14-.84-3.07.48-6.21-1.12-3.59-2.24-7.18-3.36-10.78,4.16-.1,8.33-.21,12.49-.31-.63,2.98-1.25,5.96-1.88,8.93,8.41-4.72,15.71-5.55,19.71-5.68Z"/>
      <path class="cls-9" d="m518.27,423.15c-21.07-.08-42.13-.82-63.19-1.5,2.64,8.86,5.57,18.06,8.86,27.56,10.06,29.09,20.92,53.97,30.83,74.23,8.99-2.97,17.97-5.95,26.96-8.92,2.6-11.15,8.23-41.17-.85-81.13-.8-3.52-1.67-6.92-2.6-10.23Z"/>
      <path class="cls-16" d="m466.11,226.07h-5.9l-8.09,7.96-8.11-7.96h-5.9l-19.62,151.85h67.24c-6.54-50.62-13.08-101.24-19.62-151.85Z"/>
      <path class="cls-11" d="m455.28,245c-.05-.15-.13-.37-.29-.57-.14-.17-.28-.25-.41-.29v-1.51c.34-.03.58-.08.73-.17,1.07-.62,1.35-1.95,1.77-3.89.34-1.6.51-2.41.13-3.09-.81-1.47-3.25-1.46-5.04-1.46-1.71,0-4.5,0-5.26,1.59-.32.67-.11,1.42.31,2.92.48,1.7.91,3.25,2.21,3.89.05.03.12.05.2.07v1.64c-.13.04-.3.12-.45.31-.16.19-.24.42-.29.57-2.74,9.06-5.47,18.12-8.21,27.18,3.57,9.45,7.14,18.91,10.71,28.36,4.03-9.45,8.06-18.91,12.09-28.36-2.74-9.06-5.47-18.12-8.21-27.18Z"/>
      <path class="cls-12" d="m468.17,245.89c-1.6-.56-3.19-1.11-4.79-1.67-.95,6.13-1.9,12.26-2.86,18.38-2.83,11.37-5.66,22.75-8.48,34.12-3.75-15.32-7.49-30.65-11.24-45.97-1.58-1.61-3.16-3.21-4.74-4.82-6.36,61.95-12.73,123.91-19.09,185.86h70.54c-6.45-61.97-12.9-123.94-19.35-185.91Z"/>
      <path class="cls-9" d="m444.01,226.07c-2.61,0-5.23-.01-7.84-.02-4.26.6-12.45,2.36-20.63,8.35-10.98,8.03-15.13,18.69-16.47,22.73-11.77,38.86-22.58,82.44-30.81,130.37-4.54,26.44-7.88,51.78-10.27,75.85,20.59.55,41.18,1.1,61.78,1.66,8.08-79.64,16.17-159.29,24.25-238.93Z"/>
      <polygon class="cls-9" points="423.58 234.97 376.81 176.37 359.85 139.37 338.78 151.7 361.39 208.24 402.51 270.43 423.58 234.97"/>
      <path class="cls-17" d="m337.41,106.12c-2.48.65-6.23,1.62-7.4,4.69-.47,1.24-.34,2.32-.21,3.34.43,3.43,2.78,8,6.98,9.07,2.3.59,4.36-.08,5.73-.52,1.6-.52,3.31-1,4.59-2.61,1.36-1.72,1.45-3.69,1.44-4.5.34-.36.86-1,1.19-1.93.2-.56.88-2.49-.23-3.92-.73-.94-1.86-1.16-2.3-1.22-.24-.55-.65-1.26-1.36-1.88-2.41-2.09-6.15-1.12-8.44-.52Z"/>
      <path class="cls-17" d="m548.69,143.27c4.3-7.48,8.6-14.96,12.91-22.44,1.48.31,2.95.62,4.43.92-1.9,9.06-3.8,18.12-5.69,27.17-3.74-2.19-7.53-4.19-11.64-5.66Z"/>
      <path class="cls-9" d="m460.21,226.07c3.18,0,6.37-.01,9.55-.02,4.26.6,12.45,2.36,20.63,8.35,10.98,8.03,15.13,18.69,16.47,22.73,11.77,38.86,22.59,82.44,30.81,130.37,4.54,26.44,7.88,51.78,10.27,75.85-20.59.55-41.18,1.1-61.78,1.66-8.65-79.64-17.31-159.29-25.96-238.93Z"/>
      <polygon class="cls-9" points="482.35 234.97 529.12 176.37 546.08 139.37 567.16 151.7 544.54 208.24 503.42 270.43 482.35 234.97"/>
      <path class="cls-17" d="m568.53,106.12c2.48.65,6.23,1.62,7.4,4.69.47,1.24.34,2.32.21,3.34-.43,3.43-2.78,8-6.98,9.07-2.3.59-4.36-.08-5.73-.52-1.6-.52-3.31-1-4.59-2.61-1.36-1.72-1.45-3.69-1.44-4.5-.34-.36-.86-1-1.19-1.93-.2-.56-.88-2.49.23-3.92.73-.94,1.86-1.16,2.3-1.22.24-.55.65-1.26,1.36-1.88,2.41-2.09,6.15-1.12,8.44-.52Z"/>
      <g>
        <circle class="cls-13" cx="452.49" cy="318.31" r="4.55"/>
        <circle class="cls-13" cx="452.49" cy="341.56" r="4.55"/>
        <circle class="cls-13" cx="452.49" cy="364.89" r="4.55"/>
      </g>
      <path class="cls-22" d="m410.03,141.75c3.77-3.17,18.67-14.95,40.96-14.75,21.69.2,36.12,11.6,39.97,14.86-.71-2.7-1.41-5.4-2.12-8.09-5.07-3.79-12.43-8.14-22.01-10.59-14.34-3.66-26.12-1.11-32.45.34-9.76,2.23-17.34,5.94-22.44,8.95-.64,3.09-1.27,6.19-1.91,9.28Z"/>
      <path class="cls-21" d="m464.43,226.33l-4.32.26c-2.68,2.62-5.36,5.24-8.04,7.86-2.69-2.63-5.37-5.26-8.06-7.89-1.47.01-2.94.03-4.41.04.72,6.25,1.45,12.5,2.17,18.75,3.45-3.56,6.89-7.13,10.34-10.69,3.45,3.56,6.9,7.13,10.35,10.69.65-6.34,1.31-12.68,1.96-19.03Z"/>
      <path class="cls-19" d="m448.03,247.83c-.26-.14-.62-.35-1.02-.61,0,0-.63-.41-1.22-.89-4.4-3.59-4.83-6.34-10.02-11.57-3.23-3.26-6.54-5.28-8.87-6.48-1.28-.04-3.42.1-5.56,1.32-.53.3-.99.63-1.38.96.22.49.59,1.22,1.16,2.01,3.03,4.27,8.32,3.08,11.28,6.49,3.84,4.44,3.71,6.74,10.22,11.58,1.55,1.15,2.93,1.94,3.82,2.41.53-1.75,1.05-3.49,1.58-5.24Z"/>
      <path class="cls-19" d="m481.1,228.93c-.3-.06-.58-.09-.86-.11-5.76,2.49-9.35,5.47-11.61,7.84-.98,1.03-2.09,2.43-5.66,6.17-2.86,3-3.66,4.21-5.7,5.39-.36.21-.67.37-.87.47.52,1.73,1.05,3.47,1.57,5.2,1.23-.71,3.07-1.86,5.1-3.53,3.22-2.65,3.62-3.57,5.97-6.15,4.83-5.31,8.63-4.49,13.68-9.86,1.2-1.28,2.07-2.42,2.58-3.14-.85-.83-2.26-1.91-4.2-2.28Z"/>
      <path class="cls-20" d="m443.74,204.85c1.4.42,8.62,2.42,15.92-1.63,5.44-3.02,7.85-7.69,8.64-9.4"/>
    </g>
    <path class="cls-1" d="m119.47,339.85c-5.89,6.1-7.73,13.05-8.11,15.06-1.05,5.54.72,16.94,37.85,42.89,21.42,14.98,57.55,36.85,97.21,40.69,7.14.69,21.7,1.99,23.96-3.43,1.21-2.9-1.23-7.43-4.49-9.79-6.56-4.74-13.26,1.66-26.17-.05-10.68-1.41-21.23-7.79-20.82-12.21.33-3.51,7.53-5.47,9.05-5.89,14.68-4.01,24.18,5.6,41.24,8.86,10.09,1.93,11.36-.55,32.48-2.23,37.69-3,37.95,4.57,66.8,1.4,25.79-2.84,37.37-10.19,49.6-1.99,4.9,3.28,10.47,9.45,9.26,14.59-1.99,8.4-21.15,9.95-24.94,10.26-15.07,1.22-23.47-2.88-37.95-6.46-18.32-4.53-38.25-9.45-57.89-3.73-20.5,5.97-21.26,17.89-41.67,22.54-13.57,3.09-25.18.55-40.86-4.16-59.81-17.95-101.19-44.04-122.25-58.43-22.62-15.45-37.23-27.94-41.94-47.11-1.24-5.03-3.82-15.57,1.63-23.75,8.53-12.8,31.61-12.11,48.61-11.6,14.57.44,17.94,3.05,33.4,2.12,5.07-.3,9.65-.88,16.31.33,6.92,1.26,16.27,2.95,20.27,10.6,3,5.73,2.83,14.49-1.76,18.57-4.91,4.36-13.58,2.22-25.96-.83-11.21-2.77-14.4-5.52-20.85-3.92-6.1,1.51-10.13,5.69-12.01,7.64Z"/>
    <path class="cls-10" d="m505.94,463.38c6.55,0,13.14,0,19.64-.94,5.73-.82,12.05-2.17,15.79-7.04,1.64-2.14,2.07-5.32-.18-7.29-1.92-1.68-5.54-2.1-7.29.18-.38.49-.78.94-1.22,1.37.72-.71-.21.15-.42.29-.17.11-1.82.99-.83.54-.43.2-.87.36-1.32.51-2.36.81-4.42,1.11-6.64,1.37-5.9.69-11.85.69-17.78.69-2.7,0-5.22,2.55-5.02,5.28.2,2.85,2.39,5.03,5.28,5.02h0Z"/>
    <circle class="cls-10" cx="557.41" cy="438.34" r="5.22"/>
  </g>
</svg>