<?xml version="1.0" encoding="UTF-8"?>
<svg id="_レイヤー_2" data-name="レイヤー 2" xmlns="http://www.w3.org/2000/svg" xmlns:xlink="http://www.w3.org/1999/xlink" viewBox="0 0 857.28 553.31">
  <defs>
    <style>
      .cls-1 {
        fill: url(#_名称未設定グラデーション_13-3);
      }

      .cls-1, .cls-2, .cls-3, .cls-4, .cls-5, .cls-6, .cls-7, .cls-8, .cls-9, .cls-10, .cls-11, .cls-12, .cls-13, .cls-14, .cls-15, .cls-16, .cls-17, .cls-18, .cls-19 {
        stroke-width: 0px;
      }

      .cls-2 {
        fill: url(#_名称未設定グラデーション_13-2);
      }

      .cls-3 {
        fill: url(#_名称未設定グラデーション_13);
      }

      .cls-4 {
        fill: url(#_名称未設定グラデーション_11);
      }

      .cls-5 {
        fill: url(#_名称未設定グラデーション_7-2);
      }

      .cls-20, .cls-21 {
        stroke: #feefda;
        stroke-miterlimit: 10;
      }

      .cls-20, .cls-17 {
        fill: #fff;
      }

      .cls-6 {
        fill: url(#_名称未設定グラデーション_7);
      }

      .cls-7 {
        fill: url(#_名称未設定グラデーション_9);
      }

      .cls-8 {
        fill: url(#_名称未設定グラデーション_3);
      }

      .cls-21 {
        fill: none;
      }

      .cls-9 {
        fill: #313333;
      }

      .cls-10 {
        fill: #7ab8e0;
      }

      .cls-11 {
        fill: #2275b4;
      }

      .cls-12 {
        fill: #b5b5b6;
      }

      .cls-13 {
        fill: #8d8077;
      }

      .cls-14 {
        fill: #977328;
      }

      .cls-15 {
        fill: #f2c09d;
      }

      .cls-16 {
        fill: #f3cb45;
      }

      .cls-18 {
        fill: #e6a2a8;
      }

      .cls-19 {
        fill: #f3c8a2;
      }
    </style>
    <linearGradient id="_名称未設定グラデーション_13" data-name="名称未設定グラデーション 13" x1="1378.72" y1="1623.44" x2="1576.71" y2="1623.44" gradientTransform="translate(-1060.66 -1233.87) rotate(-1.44)" gradientUnits="userSpaceOnUse">
      <stop offset="0" stop-color="#84b9df"/>
      <stop offset="1" stop-color="#e8b6bc"/>
    </linearGradient>
    <linearGradient id="_名称未設定グラデーション_11" data-name="名称未設定グラデーション 11" x1="1610.13" y1="1502.75" x2="1873.41" y2="1502.75" gradientTransform="translate(-1060.66 -1233.87) rotate(-1.44)" gradientUnits="userSpaceOnUse">
      <stop offset=".32" stop-color="#f5d679"/>
      <stop offset=".8" stop-color="#e8b6bc"/>
    </linearGradient>
    <linearGradient id="_名称未設定グラデーション_7" data-name="名称未設定グラデーション 7" x1="1595.78" y1="1378.18" x2="1858.63" y2="1378.18" gradientTransform="translate(-1060.66 -1233.87) rotate(-1.44)" gradientUnits="userSpaceOnUse">
      <stop offset=".26" stop-color="#84b9df"/>
      <stop offset=".8" stop-color="#e8b6bc"/>
    </linearGradient>
    <linearGradient id="_名称未設定グラデーション_13-2" data-name="名称未設定グラデーション 13" x1="1659.88" y1="1646.07" x2="1879.44" y2="1646.07" gradientTransform="translate(-617.89 -1622.34) rotate(12.81)" xlink:href="#_名称未設定グラデーション_13"/>
    <linearGradient id="_名称未設定グラデーション_7-2" data-name="名称未設定グラデーション 7" x1="1514.2" y1="1280.89" x2="1562.38" y2="1280.89" xlink:href="#_名称未設定グラデーション_7"/>
    <linearGradient id="_名称未設定グラデーション_9" data-name="名称未設定グラデーション 9" x1="1089.22" y1="1504.44" x2="1332.72" y2="1504.44" gradientTransform="translate(-1060.66 -1233.87) rotate(-1.44)" gradientUnits="userSpaceOnUse">
      <stop offset="0" stop-color="#f5d679"/>
      <stop offset=".8" stop-color="#e8b6bc"/>
    </linearGradient>
    <linearGradient id="_名称未設定グラデーション_3" data-name="名称未設定グラデーション 3" x1="1025.27" y1="1370.55" x2="1397.54" y2="1370.55" gradientTransform="translate(-1060.66 -1233.87) rotate(-1.44)" gradientUnits="userSpaceOnUse">
      <stop offset=".02" stop-color="#e8b6bc"/>
      <stop offset=".98" stop-color="#84b9df"/>
    </linearGradient>
    <linearGradient id="_名称未設定グラデーション_13-3" data-name="名称未設定グラデーション 13" x1="1084.06" y1="1660.76" x2="1450.89" y2="1660.76" xlink:href="#_名称未設定グラデーション_13"/>
  </defs>
  <g id="_レイヤー_1-2" data-name="レイヤー 1">
    <path class="cls-3" d="m446.44,336.88c-1.54,1.86-.49,5.51.77,7.51,3.48,5.5,13.02,5.33,16.92,5.36,1.29.01,14.73,2.75,41.59,8.21,41.07,8.36,47.79,19.27,49.48,22.49.76,1.46,3.42,6.52,1.4,9.52-2.23,3.3-9.08,2.58-16.47.99-21.33-4.57-29.3-12.48-50.29-20.44-2.44-.93-11.73-3.55-30.32-8.79-18.48-5.21-22.68-6.13-28.8-5.93-4.52.15-11.54,2.24-25.6,6.43-2.89.86-20.59,6.16-34.86,6.38-2.58.04-7.27-.06-9.92-3.22-.27-.32-2.18-2.61-1.57-4.88.81-2.99,5.39-3.72,10.86-5.48,9.51-3.06,8.66-5.02,15.45-7.05,12.98-3.88,17.68,2.79,26-1.81,5.76-3.19,10.36-10.18,8.88-15.27-1.39-4.79-8.05-7.54-8.88-7.88-4.54-1.88-7.61-1-9.35-3.53-1.16-1.68-1.35-4.33-.44-6.07,2.66-5.07,14.9-2.61,29.77-1.62,19.02,1.27,16.1-1.61,35.01-.59,16.86.91,43.02,2.33,49.01,15.55.39.86,2.18,4.8.48,7.51-1.98,3.16-7.6,2.7-18.77,1.63-15.27-1.46-30.7.36-46.02-.29-.88-.04-3.14-.14-4.31,1.27Z"/>
    <path class="cls-11" d="m533.03,524.93c-7.12.46-14.25.92-21.37,1.39-10.53-29.96-21.3-72.52-21.12-123.92.08-23.61,2.46-44.85,5.74-63.17,32.4-1.53,64.81-3.07,97.21-4.6,3.31,9.1,7.56,22.71,10.16,39.63,3.4,22.14,2.24,38.68.37,63.2-2.81,36.85-5.24,65.9-6.91,85.35-8.5.46-17,.91-25.51,1.37-5.22-20.83-9.92-44.23-13.25-69.93-2.53-19.55-3.95-37.94-4.61-54.97-2.7,19.25-5.66,38.84-8.91,58.75-3.73,22.83-7.67,45.13-11.8,66.9Z"/>
    <path class="cls-4" d="m768.5,198.58c-26.66-11.92-28.5-12.62-30.91-13.38-4.49-1.42-16.74-5.18-31.64-4.03-13.63,1.05-14.91,5.07-39.61,11.94-15.28,4.25-22.92,6.37-30.41,6.56-7.1.18-24.21-.36-38.26,1.61-2.21.31-6.93,1.04-9.54,4.75-1.44,2.04-2.31,5.1-1.41,7.76.55,1.66,2.43,5.05,11.12,7.12,24.66,5.88,71.12-.18,71.12-.18,27.05-3.53,15.27,1.49,72.71-1.19,0,0,22.23-1.04,50.8,10.63,3.01,1.23,8.4,3.69,8.55,7.19.12,2.93-3.47,5.36-6.25,7.24-8.03,5.43-13.43,3.97-15.25,7.79-1.54,3.23.59,7.92,3.16,10.54,3.69,3.76,9.4,3.67,20.68,3.34,26.81-.79,28.17-1,30.84-2.39,1.94-1.01,13.78-7.15,15.92-19.71,1.36-8.01-1.93-14.46-2.99-16.34-5.37-9.57-15.54-12.89-24.86-15.79-16.84-5.24-22.41-.95-40.09-7.36-.59-.21-.31-.12-13.67-6.09Z"/>
    <path class="cls-6" d="m636.29,47.7c-15.76-.89,4.25.26-23.08-.59-25.11-.77-43.23-1.77-45.01,3.52-.16.47-.41,1.66.05,2.84,1.1,2.82,5.5,3.53,8.08,3.92,9.94,1.5,14.9,2.25,17.66,2.03,10.36-.82,30.08,1.81,69.51,7.06,23.87,3.18,35.68,6.08,47.9,12,5.76,2.79,14.43,7.61,21.06,17.08,3.21,4.58,8.41,12,6.56,20.2-1.77,7.82-9.24,13.19-11.19,14.59-4.59,3.3-8.02,3.85-12.43,8.84-3.66,4.14-3.71,6.47-3.38,7.79.34,1.33,1.29,2.48,2.84,3.51,11.03,7.25,27.11,5.65,27.11,5.65,19.15-1.91,34.4-8.19,41.81-11.51,21.55-9.64,35.14-15.71,42.98-30.52,1.91-3.61,8.1-15.29,3.74-26.51-2.88-7.42-9.16-11.49-13-13.71-25.13-14.48-65.92-18.27-72.29-18.82-33.77-2.92-50.52-4.09-108.91-7.37Z"/>
    <path class="cls-2" d="m834.82,331.08c-5.29-2.16-9.28-4.21-10.25-4.73-4.12-2.23-7.56-6.06-14.86-19.16-9.9-17.77-9.45-21.32-15.48-25.48-1.47-1.02-10.46-6.99-17.12-3.2-2.71,1.54-5.53,4.99-4.94,8.14.86,4.64,8.3,4.47,15.56,10.06,7.88,6.07,10.47,14.98,11.35,18.02,4.1,14.16-2.32,26.85-6.71,35.54-3.17,6.28-9.69,19.16-23.51,27.94-7.13,4.52-17.42,8.74-26.4,18.02-2.9,3-5.85,6.72-4.76,8.87.58,1.14,2.11,1.5,3.37,1.79,4.18.98,7.86-.41,8.75-.76,16.87-6.62,27.23-17.14,27.23-17.14,6.84-6.94,10.28-12.58,20.1-20.48,2.52-2.03,6.22-4.81,10.15-3.87,3.14.75,5.71,3.72,6.39,6.6,1.45,6.12-5.37,12.78-12.5,18.78-21.56,18.1-42.94,27.44-46.38,28.92-9.9,4.25-24.83,10.55-45.55,14.7-22.04,4.41-33.61,6.73-49.49,4.88,0,0-17.41-2.03-35.36,1.57-3.72.75-9.35,2.13-10.19,5.58-.74,3.04,2.63,6.19,2.98,6.51,5.49,5.01,14.8,2.94,23.81.95,23.2-5.11,34.8-7.67,36.44-7.84,22.34-2.33,23.27,10.25,42.06,8.19,17.62-1.93,18.57-13.18,53.78-28.27,8.02-3.44,12.73-5.45,19.89-7.49,20.74-5.9,29.09-2.57,40.37-10.04,7.45-4.94,11.15-11.25,14.49-16.95,3.66-6.25,13.1-22.37,7.52-39.13-.61-1.82-4.76-14.3-13.78-17.89-1.21-.48-3.19-1.07-6.96-2.61Z"/>
    <path class="cls-5" d="m519.64,1.53c-15.77.81-19.84-2.46-28.74,1.39-3.92,1.69-5.23,3.23-5.53,4.8-.48,2.45,1.47,5.04,3.32,6.4,3.09,2.27,6.05,1.23,15.64.11,7.39-.87,11.73-.96,20.72-2.68,5.51-1.05,8.11-1.82,8.4-3.37.4-2.18-4.04-4.65-4.45-4.88-3.82-2.08-7.64-1.85-9.36-1.76Z"/>
    <path class="cls-15" d="m398.45,65.62c2.84-.76,5.5,1.11,7.9,2.37,2.68,1.4,5.39,2.74,8.22,3.83,4.84,1.87,9.46,2.03,13.83-1.06,4.04-2.86,7.33-8.01,12.37-9.19,3.49-.81,4.78,1.02,7.16,3.14,1.85,1.65,3.85,2.91,6.25,3.63,4.33,1.3,9.16.75,13.25-1.08,4.06-1.82,5.49-5.22,8.74-7.81,3.99-3.19,8.08-.74,11.4,1.99,3.79,3.12,8.31,4.44,13.2,3.83,5.12-.64,4.97-8.74-.2-8.09-2.72.34-5.12.12-7.4-1.59-1.68-1.26-3-2.83-4.88-3.85-4-2.17-9.04-2.45-13.3-.85-4.05,1.52-5.58,4.71-8.54,7.47-3.74,3.48-9.73,3.48-13.4.05-3.93-3.68-7.77-5.96-13.37-4.85-5.03,1-8.83,4.28-12.51,7.64-2.05,1.87-4.08,4.33-7.11,3.92s-5.89-2.18-8.43-3.48c-5.05-2.59-9.69-5.31-15.53-3.75-5.03,1.35-2.69,9.1,2.35,7.75h0Z"/>
    <path class="cls-7" d="m175.5,191.33c-3.1,6.15-6.54,12.12-9.74,18.21-6.2,11.81-16.76,11.9-45.47,26.4-11.21,5.66-28.53,15.2-44.35,32.2-6.02,6.47-9.22,11.22-8.81,16.73.82,10.85,15.24,19.2,27.22,20.2,5.61.47,16.54-.19,19.27-6.31,1.96-4.41-.84-10.54-1.77-12.58-2.19-4.79-4.32-5.34-5.06-8.13-1.78-6.74,7.65-14.83,11.21-17.76,25.73-21.2,48.33-28.41,48.33-28.41,20.1-6.41,52.5-16.74,86.61-12.38,14.57,1.86,22.47.11,38.28-3.39,4.18-.93,10.57-2.57,14.36-8.13.25-.37,4.79-7.25,2.08-13.65-2.09-4.95-7.46-7.11-11.87-8.44-19.23-5.82-30.25,1.04-54.4-.57-18.64-1.24-27.96-1.86-38.99-5.82-5.52-1.98-11.9-4.87-17.53-1.99-3.7,1.89-5.02,5.22-9.36,13.83Z"/>
    <path class="cls-19" d="m249.62,109.94c-14.25-1.45-27.28-1.6-54.35,1.68-6.44.78-12.96,1.67-13.97,5.16-.97,3.37,3.7,7.38,4.05,7.68,8.2,6.9,17.92-.4,38.83-.86,18.91-.41,28.41,5.19,36.38-1.77.65-.57,4.53-3.95,3.73-6.88-.9-3.29-7.24-4.26-14.68-5.02Z"/>
    <path class="cls-10" d="m127.51,211.45c-3.89,1.95-7.23,4.43-18.13,16.11-4.58,4.91-8.59,9.39-7.98,10.09.55.63,3.99-2.97,9.8-3.54,1.92-.19,6.37-.63,9.11,1.83,5.05,4.53-.92,14.26,4.18,18.84,2.38,2.14,6.01,2.12,8.27,1.44,2.54-.76,4.91-2.82,8.38-10.92,4.69-10.98,8.64-20.2,4.63-28.95-.75-1.63-2.65-5.79-6.77-7.24-3.92-1.38-7.69.45-11.47,2.35Z"/>
    <path class="cls-8" d="m57.45,98.31c-2.52,3.59-18.6,26.54-11.42,47.88,2.92,8.67,9.65,17.01,18.68,28.18,4.78,5.92,9.82,11.37,10.21,19.65.08,1.73.37,7.95-3.58,12.23-5.3,5.75-14.94,4.41-21.28,3.45-8.22-1.25-32.5-4.95-44.4-27.53-10.77-20.44-3.12-40.64-1.61-44.64,3.79-10.01,9.64-16.61,17.36-24.23,26.61-26.27,52.56-42.04,55.23-43.64,7.66-4.59,40.78-24.08,91.74-40.19,17.98-5.68,31.33-8.78,44.38-11.8C292.79-.88,315.52,8.29,339.09,1.38c.62-.18,11.12-3.27,21.86.42,5.57,1.91,5.89,3.82,5.93,4.22.4,3.65-8.78,7.35-10.48,8.03-14.44,5.82-29.21,1.76-37.88-.02-3.38-.7-50.55-9.85-83.26,10.35-11.76,7.26-12.28,12.52-23.87,16.14-12.55,3.91-27.58,2.63-40.75,1.51-6.34-.54-7.44-.92-10.71-1.19-27.93-2.3-53.39,16.6-80.17,36.98-16.61,12.64-20.71,18.19-22.31,20.47Z"/>
    <circle class="cls-10" cx="737.84" cy="308.04" r="5.22"/>
    <circle class="cls-10" cx="817.73" cy="161.25" r="5.22"/>
    <circle class="cls-10" cx="575.06" cy="457.96" r="5.22"/>
    <path class="cls-18" d="m579.78,519.65c1.28,4.82,2.55,9.65,3.83,14.47.99.01,1.97.03,2.96.04,1.21-4.85,2.42-9.7,3.63-14.55-3.47.01-6.94.03-10.42.04Z"/>
    <path class="cls-18" d="m523.03,522.63c1.27,4.02,2.55,8.04,3.82,12.06.83-.03,1.67-.06,2.5-.08.82-4.14,1.65-8.29,2.47-12.43-2.93.15-5.86.31-8.79.46Z"/>
    <path class="cls-18" d="m316.89,473.93c1.28,4.82,2.55,9.65,3.83,14.47.99.01,1.97.03,2.96.04,1.21-4.85,2.42-9.7,3.63-14.55-3.47.01-6.94.03-10.42.04Z"/>
    <path class="cls-9" d="m339.45,486.43c3.92-.13,10.29-.33,12.78,3.7,1.17,1.91,1.51,4.79.23,6.8-1.16,1.84-3.44,2.58-11.76,2.77-12.46.29-19.26.37-20.82-3.25-.35-.81-.6-2.19.34-4.43l-2.4-7.68c2.97-.07,5.94-.15,8.91-.22-.45,2.12-.89,4.25-1.34,6.37,5.99-3.37,11.21-3.96,14.06-4.05Z"/>
    <path class="cls-18" d="m380.74,459.57c1.27,4.02,2.55,8.04,3.82,12.06.83-.03,1.67-.06,2.5-.08.82-4.14,1.65-8.29,2.47-12.43-2.93.15-5.86.31-8.79.46Z"/>
    <path class="cls-9" d="m400.3,469.21c3.3-.27,8.67-.7,10.94,2.6,1.07,1.56,1.47,3.99.47,5.73-.91,1.6-2.8,2.32-9.82,2.82-10.51.75-16.24,1.09-17.71-1.9-.33-.67-.6-1.82.11-3.75-.78-2.13-1.56-4.26-2.34-6.39,2.5-.18,5.01-.37,7.51-.55-.29,1.81-.58,3.62-.87,5.43,4.92-3.08,9.3-3.8,11.7-3.99Z"/>
    <path class="cls-14" d="m405.95,411.62c1.58-44.68-5.48-82.89-13.69-111.9l-85.33,6.44c1.52,34.96,2.62,70.66,3.22,107.07.35,21.37.53,42.5.55,63.37,10.82-1.54,21.64-3.07,32.46-4.61,4.03-10.05,7.93-21.34,11.27-33.81,6.04-22.57,8.69-43.12,9.66-60.38,3.94,11.14,7.81,24.66,10.47,40.25,2.92,17.11,3.65,32.42,3.44,45.06,7.83-2.16,15.66-4.32,23.5-6.48,2.24-13.7,3.88-28.76,4.46-45.02Z"/>
    <path class="cls-18" d="m305.11,125.41c-3.16-2.34-4.91-2.12-5.76-1.79-3.86,1.48-5.39,11.27-1.11,17.42,2.62,3.77,6.66,5.09,8.38,5.54-.17-4.36-.35-8.72-.52-13.08-.46-.79-1.17-2.26-1.36-4.23-.16-1.68.13-3.04.37-3.87Z"/>
    <path class="cls-18" d="m384.55,121.1c3.09,15.45-.22,36.48-14.64,49.44-3.3,2.96-9.95,8.95-20.45,10.06-1.24.13-4.76.43-9.13-.3-12.08-2.01-19.74-10.03-22.87-13.31-13.59-14.22-16.43-36.37-9.17-54.25,2.94-7.25,9.14-22.53,26.11-26.89,3.3-.85,15.1-3.98,27.03,2.7,14.44,8.08,17.06,23.64,17.35,25.6,1.42.41,2.85.83,4.27,1.24.42,1.3,1,3.27,1.49,5.7Z"/>
    <path class="cls-18" d="m353.92,191.03c-2.41.57-4.82,1.13-7.23,1.7-2.45-.57-4.9-1.13-7.35-1.7v-14.34h14.58v14.34Z"/>
    <path class="cls-20" d="m371.26,188.62c-6.17-2.66-12.31-2.48-16.72-1.82-1.47,3.17-4.81,5.06-8.27,4.7-3.46-.36-6.32-2.89-7.11-6.28-.98-.02-1.97-.02-2.98,0-11.76.28-22.04,3.83-30.44,8.26-.87.61-2.15,1.61-3.46,3.06-4.79,5.33-5.53,11.89-5.84,15.07-3.24,32.68-4.87,49.02-.62,71.67,1,5.32,2.66,13.1,5.44,22.41,6.79,4.3,22.65,13.03,44.5,13.35,27.95.41,47.4-13.22,53.4-17.8,2.58-26.6-.06-48.14-2.99-62.8-4.33-21.73-8.84-42.9-24.91-49.82Z"/>
    <path class="cls-18" d="m322.99,258.41c-.67-2.27,1.21-3.62,1.16-8.71-.03-2.86-.65-5.21-1.19-6.77-2.13.12-4.36.29-6.68.55-2.22.25-4.43.56-6.63.89.06,2.22.16,5.46.38,9.39.45,7.99.67,11.99,1.16,12.97,3.37,6.7,15.37,7.47,36.23,8.57,4.59.24,8.43.32,11.14.34.52-2.36,1.05-4.72,1.57-7.07-7.98-1.52-14.23-2.68-17.98-3.38-12.49-2.32-18.13-3.3-19.16-6.77Z"/>
    <path class="cls-18" d="m378.9,274.54s-.07.15-.05.28c.15,1.61,8.33,1.28,8.64,3.29.01.07.03.2-.03.35-.73,1.82-10.43-1.14-10.98.37-.04.12-.01.22.02.34.46,1.73,6.09.98,6.43,2.49.03.15,0,.28-.01.33-.47,1.77-8.55,1.24-14.05.33-5.83-.96-9.05-1.54-10.64-4.23-1.12-1.91-1.12-4.3-1.07-5.66.03-.87.12-2.9,1.25-5.13,1.06-2.08,2.47-3.25,3.79-4.32,1.25-1.01,4.79-3.62,9.65-4.05.67-.06,4.21-.37,4.63.8.1.27,0,.52-.06.69-.73,1.92-4.67,1.2-5.35,3-.2.53-.15,1.36.31,1.72.31.24.72.22.94.19,14.02,1.34,17.02,2.87,17.09,4.03,0,.14-.02.35-.15.55-1.18,1.81-8.45-2.13-10.14-.02-.11.14-.19.23-.18.37.07,1.58,11.22,1.48,11.46,3.7.02.21-.06.37-.09.42-1.05,2.06-10.56-1.7-11.41.14Z"/>
    <path class="cls-17" d="m369.34,157.11c-3.01,5.24-8.67,8.33-14.52,7.92-6.62-.46-12.32-5.33-13.97-12.04,9.5,1.37,18.99,2.75,28.49,4.12Z"/>
    <path class="cls-16" d="m391.18,91.3c2.38,1.75,6.13,3.68,12.02,4.23-1.55.85-3.63,1.76-6.17,2.28-6.45,1.31-11.77-.68-14.06-1.71,3.03,1.75,7.25,3.72,12.53,4.85,11.25,2.41,20.59-.4,24.93-2.03-1.71,3.28-5.87,10.04-13.84,13.52-.1.05-.23.1-.39.17-5.76,2.33-9.76,1.47-16.71,1.59-1.75.03-4.32.14-7.47.5,4.9,1.16,9.81,2.31,14.71,3.47-5.84.79-12.74,1.15-20.39.42-2.34-.22-4.57-.53-6.68-.9,2.82,1.16,5.65,2.33,8.47,3.49-6.39,1.26-15.55,2.31-26.39.99-5.52-.67-9.39-1.7-10.39-1.97-5.67-1.5-14.91-4.79-24.9-12.82-2.16,2.6-5.84,7.74-7.56,15.21-1.31,5.71-.98,10.57-.51,13.64-.77-.56-2.2-1.78-3.15-3.84-1.37-3-.78-5.77-.56-6.63-.68-.49-1.29-.8-1.73-1.01-1.04-.48-2.4-1.08-3.81-.65-.17.05-.3.1-.38.14-3.95-10.48-2.57-21.27,3.8-27.54,2.77-2.73,6.04-4.16,8.87-4.91.65-3.45,2.22-8.27,6.17-12.22,0,0,0,0,0,0,0,0,1.16-1.12,2.58-2.05,13.67-8.99,32.21-6.82,32.21-6.82,13.57,1.59,25.91,8.34,30.44,13.38.39.43,3.67,3.78,8.37,7.23Z"/>
    <path class="cls-21" d="m304.95,244.26c9.97-.72,19.95-1.44,29.92-2.16-2.49-8.62-4.98-17.24-7.47-25.86"/>
    <path class="cls-18" d="m563.01,175.03c.26-.55.56-1.11.91-1.68,2.21-3.52,5.42-5.41,7.62-6.39l1.48-16.68c-7.31-12.92-14.47-25.95-22.88-38.2-.17-.25-.33-.52-.49-.78-14.63-.72-29.25-1.59-43.86-2.75-1.95,4.23-3.03,7.77-3.57,9.52-5.62,18.39-.92,34.33,1.12,40.16,3.12-.35,6.24-.7,9.35-1.06-1.77,3.02-3.54,6.05-5.32,9.07.62,3.94,2.4,6.08,3.31,6.99,2.9,2.94,6.77,3.43,11.2,4,3.06.39,5.63.32,7.38.19.24,3.99.56,8.1.98,12.33.31,3.11.66,6.14,1.04,9.1,3.37,1.95,6.74,3.9,10.11,5.86,8.32-.6,16.64-1.21,24.97-1.81-3.94-7.82-5.38-14.82-5.26-19.07.14-5.11,1.91-8.8,1.91-8.8Z"/>
    <path class="cls-18" d="m466.06,256.35c2.33-.91,2.24-3.36,6.51-6.61,2.41-1.83,4.77-2.83,6.42-3.39,1.28,1.86,2.58,3.83,3.87,5.93,1.23,2.01,2.4,4.06,3.55,6.11-1.89,1.39-4.66,3.41-8.08,5.76-6.96,4.81-10.44,7.21-11.57,7.43-7.77,1.53-16.19-7.98-30.62-24.68-3.18-3.67-5.72-6.82-7.5-9.08,1.63-1.96,3.25-3.93,4.88-5.89,6.44,5.67,11.46,10.13,14.47,12.81,10.03,8.92,14.51,12.99,18.07,11.6Z"/>
    <path class="cls-18" d="m416.38,220.15s-.08.15-.2.23c-1.44.91-6.47-6.12-8.34-5.07-.06.04-.19.11-.28.25-1.04,1.79,7.72,7.96,6.8,9.4-.07.11-.17.15-.29.2-1.75.73-4.77-4.45-6.24-3.75-.15.07-.23.18-.27.22-1.17,1.54,4.5,7.94,8.82,11.94,4.58,4.24,7.15,6.55,10.42,6.13,2.32-.3,4.31-1.85,5.41-2.77.71-.59,2.34-1.98,3.47-4.36,1.05-2.23,1.11-4.17,1.14-5.96.03-1.7-.09-6.34-2.88-10.68-.39-.6-2.42-3.76-3.67-3.35-.28.09-.44.34-.53.5-1.13,1.85,2.03,4.67.97,6.41-.31.51-1.03,1.01-1.64.86-.41-.1-.65-.46-.76-.66-10.2-10.82-13.42-12.33-14.44-11.64-.12.08-.28.24-.36.48-.75,2.15,7.25,5.67,6.59,8.45-.04.18-.07.31-.19.39-1.36.97-8.51-8.4-10.51-7.16-.19.12-.27.29-.3.35-1.04,2.21,8.26,7.71,7.27,9.61Z"/>
    <path class="cls-18" d="m505.29,144.28c-.48-3.4-4.62-5.41-6.21-6.2-2.87-1.41-7.84-2.61-8.7.08-.73,2.29,1.87,6.24,3.3,7.96.7.84,3.86,4.59,7.35,3.96,2.47-.45,4.62-3.19,4.25-5.81Z"/>
    <path class="cls-13" d="m530.67,120.64c.88,1.15,3.64,5.09,3.21,10.48-.32,4.09-2.31,6.94-3.28,8.16.51.17,2.86.91,5.43-.1,2.14-.84,3.15-2.39,3.45-2.9.13-.43,1.01-3.27,3.89-4.32,3.19-1.16,6.29.78,6.91,1.2,4.83,3.23,4.45,10.69,2.8,15.11-.7,1.87-2.08,5.58-5.68,6.49-1.94.49-3.75-.04-4.75-.42.48.22,1.22.49,2.16.59,1.12.13,2.04-.04,2.58-.17-.35.94-.96,3.09-.1,5.51,1.16,3.26,4.52,5.69,8.65,6.35-.94,2.23-.35,4.67,1.33,5.99,2.25,1.76,6.36,1.4,8.56-1.43.36.26.9.65,1.54,1.16,3.94,3.14,4.46,5.02,5.96,5.49,3.35,1.06,8.66-5.84,8.88-6.13,6.76-8.94,6.58-20.37,5.51-27.9,1.73-1.54,6.2-5.95,7.21-12.86,1.68-11.59-7.88-19.76-8.79-20.51.05-2.57-.21-8.09-3.81-13.13-5.4-7.57-14.62-8.88-15.7-9.02-8.23-1.05-14.77,2.26-22.16-.15-5.54-1.81-4.51-5.15-10.53-8.57-7.66-4.35-19.32-4.62-28.11.12-11.1,5.98-17.8,20.04-12.64,27.63,1.59,2.33,4.11,3.79,6.74,4.72.84,1.27,2.36,3.15,4.9,4.55,6.46,3.59,13.63.92,14.53.56,1,.82,2.9,2.15,5.67,2.94,2.34.66,4.37.66,5.63.57Z"/>
    <path class="cls-20" d="m526.55,187.56c2.91-2.39,8.86-6.64,17.57-8.57,9.49-2.11,17.27-.36,20.92.71-.46.71-1.31,2.23-1.45,4.33-.11,1.62.25,2.91.52,3.66-12.29.36-24.59.72-36.88,1.08-.23-.4-.46-.81-.69-1.21Z"/>
    <path class="cls-11" d="m525.62,187.91c4.99-1.94,11.75-4.01,19.95-5.01,7.62-.93,14.23-.65,19.31-.08,1.41,1.61,2.83,3.21,4.24,4.82,7.44,1.85,18.35,5.86,26.48,15.44,10.79,12.72,10.75,28.54,9.62,53.45-1.03,22.83-2.87,50.42-6.23,81.86,1.87,4.99,2.67,10.26.32,14.39-4.17,7.3-15.39,6-62.09,2.86-27.36-1.84-41.85-2.62-46.4-12.1-1.49-3.11-1.49-6.26-1.24-8.49-3.8-25.69-5.8-47.27-6.93-63.06-3.39-47.44-.17-58.66,6.63-66.88,10.36-12.54,26.32-16.08,36.34-17.21Z"/>
    <path class="cls-11" d="m510.72,201.84c-1.61,1.02-3.54,1.61-5.4,1.61h-4.55c-2.12,0-4.06-.7-5.74-1.87-1.5,1.89-3.22,3.87-5.16,5.9-1.55,1.61-3.07,3.07-4.55,4.39-1.28,1.98-2.56,4.01-3.82,6.08-6.04,9.88-11.14,19.6-15.46,28.99-2.43-2.34-6.15-5.41-11.29-8-5.22-2.62-9.98-3.78-13.33-4.32-2.59,3.82-5.17,7.65-7.76,11.47,1.28,3.48,3.33,8.59,6.35,14.54,8.2,16.16,14.47,28.51,23.83,29.72,9.31,1.21,20-8.85,26.99-22.91,9.77-17.55,19.53-35.1,29.3-52.66-3.13-4.31-6.26-8.63-9.39-12.94Z"/>
    <path class="cls-12" d="m560.53,207.84c.32,26.47-.16,52.95-1.46,79.39-.37,7.5-.8,15-1.3,22.5-.05.8,1.2.8,1.25,0,1.78-26.81,2.74-53.67,2.85-80.54.03-7.12,0-14.24-.08-21.36,0-.8-1.26-.81-1.25,0h0Z"/>
    <path class="cls-9" d="m520.74,529.97c-.53.18-1.31.49-1.49,1.14-.13.48.11.98.37,1.41,1.21,1.95,2.48,4.04,2.05,4.9-.45.9-2.46-.12-4.42,1.08-1.33.81-1.86,2.17-2.18,2.98-1.1,2.82-.67,6.74,1.72,9.06,1.54,1.49,3.38,1.83,6.54,2.41,2.12.39,3.75.37,4.31.35,3.06-.09,4.93-.24,6.46-1.45,2.65-2.1,2.66-6.35.87-9.22-1.49-2.38-1.92-2.45-2.22-4.57-.48-3.37,1.83-5.71.63-7.23-.22-.28-.52-.47-1.95-.83,0,0-6.15-1.57-10.68-.02Z"/>
    <path class="cls-9" d="m578.31,527.6c-.53.18-1.31.49-1.49,1.14-.13.48.11.98.37,1.41.38.62,2.58,4.18,2.05,4.9-.46.62-2.59-1.36-5.42-.88-2.37.4-3.8,2.28-4.15,2.77-1.31,1.85-1.66,4.27-.96,6.28.77,2.19,2.53,3.19,5.65,4.95,2.75,1.56,5.2,2.16,6.54,2.41,2.12.39,3.75.37,4.31.35,3.06-.09,4.93-.24,6.46-1.45,2.65-2.1,2.66-6.35.87-9.22-1.49-2.38-1.92-2.45-2.22-4.57-.48-3.37,1.83-5.71.63-7.23-.22-.28-.52-.47-1.95-.83,0,0-6.15-1.57-10.68-.02Z"/>
    <path class="cls-1" d="m124.89,357.61c-5.89,6.1-7.73,13.05-8.11,15.06-1.05,5.54.72,16.94,37.85,42.89,21.42,14.98,57.55,36.85,97.21,40.69,7.14.69,21.7,1.99,23.96-3.43,1.21-2.9-1.23-7.43-4.49-9.79-6.56-4.74-13.26,1.66-26.17-.05-10.68-1.41-21.23-7.79-20.82-12.21.33-3.51,7.53-5.47,9.05-5.89,14.68-4.01,24.18,5.6,41.24,8.86,10.09,1.93,11.36-.55,32.48-2.23,37.69-3,37.95,4.57,66.8,1.4,25.79-2.84,37.37-10.19,49.6-1.99,4.9,3.28,10.47,9.45,9.26,14.59-1.99,8.4-21.15,9.95-24.94,10.26-15.07,1.22-23.47-2.88-37.95-6.46-18.32-4.53-38.25-9.45-57.89-3.73-20.5,5.97-21.26,17.89-41.67,22.54-13.57,3.09-25.18.55-40.86-4.16-59.81-17.95-101.19-44.04-122.25-58.43-22.62-15.45-37.23-27.94-41.94-47.11-1.24-5.03-3.82-15.57,1.63-23.75,8.53-12.8,31.61-12.11,48.61-11.6,14.57.44,17.94,3.05,33.4,2.12,5.07-.3,9.65-.88,16.31.33,6.92,1.26,16.27,2.95,20.27,10.6,3,5.73,2.83,14.49-1.76,18.57-4.91,4.36-13.58,2.22-25.96-.83-11.21-2.77-14.4-5.52-20.85-3.92-6.1,1.51-10.13,5.69-12.01,7.64Z"/>
    <path class="cls-10" d="m512.57,463.41c6.55,0,13.14,0,19.64-.94,5.73-.82,12.05-2.17,15.79-7.04,1.64-2.14,2.07-5.32-.18-7.29-1.92-1.68-5.54-2.1-7.29.18-.38.49-.78.94-1.22,1.37.72-.71-.21.15-.42.29-.17.11-1.82.99-.83.54-.43.2-.87.36-1.32.51-2.36.81-4.42,1.11-6.64,1.37-5.9.69-11.85.69-17.78.69-2.7,0-5.22,2.55-5.02,5.28.2,2.85,2.39,5.03,5.28,5.02h0Z"/>
  </g>
</svg>